<?xml version="1.0" encoding="UTF-8"?>
<!DOCTYPE svg PUBLIC "-//W3C//DTD SVG 1.1//EN" "http://www.w3.org/Graphics/SVG/1.1/DTD/svg11.dtd">
<!-- Creator: CorelDRAW -->
<svg xmlns="http://www.w3.org/2000/svg" xml:space="preserve" width="28.4121mm" height="27.5964mm" version="1.1" style="shape-rendering:geometricPrecision; text-rendering:geometricPrecision; image-rendering:optimizeQuality; fill-rule:evenodd; clip-rule:evenodd"
viewBox="0 0 11.58 11.25"
 xmlns:xlink="http://www.w3.org/1999/xlink"
 xmlns:xodm="http://www.corel.com/coreldraw/odm/2003">
 <defs>
  <style type="text/css">
   <![CDATA[
    .fil0 {fill:#1F2A35;fill-rule:nonzero}
    .fil8 {fill:#2C3741;fill-rule:nonzero}
    .fil2 {fill:#AAAAAC;fill-rule:nonzero}
    .fil1 {fill:#B45002;fill-rule:nonzero}
    .fil3 {fill:#D6D6D7;fill-rule:nonzero}
    .fil4 {fill:#E2E3E5;fill-rule:nonzero}
    .fil6 {fill:#F4F4F5;fill-rule:nonzero}
    .fil7 {fill:#FFA76A;fill-rule:nonzero}
    .fil5 {fill:#FFFFFA;fill-rule:nonzero}
   ]]>
  </style>
 </defs>
 <g id="Capa_x0020_1">
  <metadata id="CorelCorpID_0Corel-Layer"/>
  <g id="_2521375078416">
   <path class="fil0" d="M5.93 0c-3.04,0 -5.51,2.47 -5.51,5.51 0,3.04 2.47,5.51 5.51,5.51 3.04,0 5.51,-2.47 5.51,-5.51 0,-3.04 -2.47,-5.51 -5.51,-5.51z"/>
   <polygon class="fil1" points="-0,9.18 11.58,9.18 11.58,2.12 -0,2.12 "/>
   <polygon class="fil2" points="5.8,9.07 0.34,8.8 0.34,1.62 5.8,1.89 "/>
   <polygon class="fil3" points="11.28,8.8 5.81,9.07 5.81,1.89 11.28,1.62 "/>
   <polygon class="fil4" points="5.77,9.07 0.89,8.25 0.89,1.07 5.77,1.89 "/>
   <polygon class="fil5" points="10.65,8.25 5.78,9.07 5.78,1.89 10.65,1.07 "/>
   <polygon class="fil3" points="5.78,1.89 5.78,9.07 4.82,8.91 "/>
   <polygon class="fil6" points="5.78,1.89 5.78,9.07 10.61,8.26 "/>
   <polygon class="fil2" points="5.38,2.54 1.48,1.87 1.48,1.71 5.38,2.37 "/>
   <polygon class="fil2" points="5.38,3.07 1.48,2.4 1.48,2.24 5.38,2.9 "/>
   <polygon class="fil2" points="5.38,3.6 1.48,2.93 1.48,2.77 5.38,3.43 "/>
   <polygon class="fil2" points="5.38,4.13 1.48,3.46 1.48,3.3 5.38,3.96 "/>
   <polygon class="fil2" points="5.38,4.66 1.48,3.99 1.48,3.83 5.38,4.49 "/>
   <polygon class="fil2" points="5.38,5.19 1.48,4.52 1.48,4.36 5.38,5.02 "/>
   <polygon class="fil2" points="5.38,5.72 1.48,5.05 1.48,4.88 5.38,5.55 "/>
   <polygon class="fil2" points="5.38,6.25 1.48,5.58 1.48,5.41 5.38,6.08 "/>
   <polygon class="fil2" points="5.38,6.78 1.48,6.11 1.48,5.94 5.38,6.61 "/>
   <polygon class="fil2" points="5.38,7.31 1.48,6.64 1.48,6.47 5.38,7.14 "/>
   <polygon class="fil3" points="6.2,2.54 10.1,1.87 10.1,1.71 6.2,2.37 "/>
   <polygon class="fil3" points="6.2,3.07 10.1,2.4 10.1,2.24 6.2,2.9 "/>
   <polygon class="fil3" points="6.2,3.6 10.1,2.93 10.1,2.77 6.2,3.43 "/>
   <polygon class="fil3" points="6.2,4.13 10.1,3.46 10.1,3.3 6.2,3.96 "/>
   <polygon class="fil3" points="6.2,4.66 10.1,3.99 10.1,3.83 6.2,4.49 "/>
   <polygon class="fil3" points="6.2,5.19 10.1,4.52 10.1,4.36 6.2,5.02 "/>
   <polygon class="fil3" points="6.2,5.72 10.1,5.05 10.1,4.88 6.2,5.55 "/>
   <polygon class="fil3" points="6.2,6.25 10.1,5.58 10.1,5.41 6.2,6.08 "/>
   <polygon class="fil3" points="6.2,6.78 10.1,6.11 10.1,5.94 6.2,6.61 "/>
   <polygon class="fil3" points="6.2,7.31 10.1,6.64 10.1,6.47 6.2,7.14 "/>
   <path class="fil3" d="M9.19 5.74c-0.17,0 -0.3,0.14 -0.3,0.3l0 0.17 -0.01 -0 -0.06 0 0 -0.55c0,-0.17 -0.14,-0.3 -0.3,-0.3 -0.17,0 -0.3,0.14 -0.3,0.3l0 0.55 -0.07 0 0 -0.83c0,-0.17 -0.14,-0.3 -0.3,-0.3 -0.17,0 -0.3,0.14 -0.3,0.3l0 0.83 -0.06 0 -0.01 -0 0 -2.08c0,-0.17 -0.14,-0.3 -0.3,-0.3 -0.17,0 -0.3,0.14 -0.3,0.3l0 2.21c0,0.01 0,0.03 0,0.04 -0,0.03 -0,0.06 -0,0.1l0 1.22c-0.06,0 -0.11,-0 -0.16,-0.01l0 -1.21c0,-0.17 -0.14,-0.34 -0.31,-0.43 -0.07,-0.04 -0.31,-0.03 -0.31,0.14l0 1.62 0 0.01 -0 0.02 0 0.38c0,0.17 0.24,0.45 0.51,0.71l2.91 -0.49 0 -2.4c0,-0.17 -0.14,-0.3 -0.3,-0.3z"/>
   <path class="fil7" d="M9.44 5.72c-0.17,0 -0.3,0.14 -0.3,0.3l0 0.17 -0.01 -0 -0.06 0 0 -0.55c0,-0.17 -0.14,-0.3 -0.3,-0.3 -0.17,0 -0.3,0.14 -0.3,0.3l0 0.55 -0.07 0 0 -0.83c0,-0.17 -0.14,-0.3 -0.3,-0.3 -0.17,0 -0.3,0.14 -0.3,0.3l0 0.83 -0.06 0 -0.01 -0 0 -2.08c0,-0.17 -0.14,-0.3 -0.3,-0.3 -0.17,0 -0.3,0.14 -0.3,0.3l0 2.21c0,0.01 0,0.03 0,0.04 -0,0.03 -0,0.06 -0,0.1l0 1.22c-0.06,0 -0.11,-0 -0.16,-0.01l0 -1.21c0,-0.17 -0.14,-0.34 -0.31,-0.43 -0.07,-0.04 -0.31,-0.03 -0.31,0.14l0 1.62 0 0.01 -0 0.02 0 0.38c0,0.31 0.77,0.97 1.08,1.21l0 -0c0.09,0.09 0.2,0.14 0.32,0.14l1.4 0c0.34,0 0.62,-0.44 0.62,-0.98l0 -2.55c0,-0.17 -0.14,-0.3 -0.3,-0.3z"/>
   <polygon class="fil8" points="6.83,11.25 9.94,11.25 9.94,9.36 6.83,9.36 "/>
   <path class="fil0" d="M6.83 9.36l0 1.89 3.11 0 -0.03 -0.59c0,0 -1.91,0.02 -2.26,-0.3 -0.34,-0.32 -0.34,-1.01 -0.34,-1.01l-0.48 0z"/>
  </g>
 </g>
</svg>
