<?xml version="1.0" encoding="UTF-8"?>
<!DOCTYPE svg PUBLIC "-//W3C//DTD SVG 1.1//EN" "http://www.w3.org/Graphics/SVG/1.1/DTD/svg11.dtd">
<!-- Creator: CorelDRAW -->
<svg xmlns="http://www.w3.org/2000/svg" xml:space="preserve" width="142.545mm" height="52.7821mm" version="1.1" style="shape-rendering:geometricPrecision; text-rendering:geometricPrecision; image-rendering:optimizeQuality; fill-rule:evenodd; clip-rule:evenodd"
viewBox="0 0 255.9 94.76"
 xmlns:xlink="http://www.w3.org/1999/xlink"
 xmlns:xodm="http://www.corel.com/coreldraw/odm/2003">
 <defs>
  <style type="text/css">
   <![CDATA[
    .fil0 {fill:#4D4D4D;fill-opacity:0.278431}
   ]]>
  </style>
 </defs>
 <g id="Capa_x0020_1">
  <metadata id="CorelCorpID_0Corel-Layer"/>
  <path class="fil0" d="M25.46 3.27c7.92,1.47 18.86,5.72 29.48,7.59 10.61,1.88 20.9,1.39 28.9,-0.57 8,-1.96 13.72,-5.39 18.62,-7.43 4.9,-2.04 8.98,-2.69 13.31,-1.06 4.33,1.63 8.9,5.55 16.09,8.49 7.19,2.94 16.98,4.9 25.88,5.06 8.9,0.16 16.9,-1.47 22.54,-3.51 5.63,-2.04 8.9,-4.49 13.64,-5.96 4.74,-1.47 10.94,-1.96 15.27,-1.06 4.33,0.9 6.78,3.18 11.51,4.9 4.74,1.71 11.76,2.86 20.74,3.92 4.6,0.54 9.71,1.07 14.48,1.73l0 74.2c-6.26,-1.01 -13.26,-0.64 -19.62,0.74 -6.78,1.47 -12.82,4.08 -22.21,4.41 -9.39,0.33 -22.13,-1.63 -33.8,-4.74 -11.68,-3.1 -22.29,-7.35 -32.74,-10.45 -10.45,-3.1 -20.74,-5.06 -30.78,-3.59 -10.04,1.47 -19.84,6.37 -29.07,9.72 -9.23,3.35 -17.88,5.14 -31.93,3.76 -14.04,-1.39 -33.48,-5.96 -45.89,-7.59 -3.92,-0.52 -7.14,-0.74 -9.86,-0.78l0 -81.04c2.5,0.97 5.2,2.06 7.99,2.46 4.65,0.65 9.55,-0.65 17.47,0.82z"/>
 </g>
</svg>
