<?xml version="1.0" encoding="UTF-8"?>
<!DOCTYPE svg PUBLIC "-//W3C//DTD SVG 1.1//EN" "http://www.w3.org/Graphics/SVG/1.1/DTD/svg11.dtd">
<!-- Creator: CorelDRAW 2019 (64-Bit) -->
<svg xmlns="http://www.w3.org/2000/svg" xml:space="preserve" width="507.808mm" height="68.7413mm" version="1.1" style="shape-rendering:geometricPrecision; text-rendering:geometricPrecision; image-rendering:optimizeQuality; fill-rule:evenodd; clip-rule:evenodd"
viewBox="0 0 9195.68 1244.81"
 xmlns:xlink="http://www.w3.org/1999/xlink">
 <defs>
  <style type="text/css">
   <![CDATA[
    .fil1 {fill:#006633}
    .fil0 {fill:#009933}
   ]]>
  </style>
 </defs>
 <g id="Capa_x0020_1">
  <metadata id="CorelCorpID_0Corel-Layer"/>
  <g id="_2275995949808">
   <path class="fil0" d="M9195.68 0l0 1010.66c0,128.78 -105.37,234.15 -234.15,234.15l-8727.38 0c-128.78,0 -234.15,-105.37 -234.15,-234.15l0 -354.64c134.57,-17.64 297.95,-19.39 468.3,-7.23 298.01,21.29 617.3,85.14 1021.74,85.14 404.44,0 894.02,-63.86 1266.54,-127.72 372.51,-63.86 627.95,-127.72 925.95,-106.43 298.01,21.29 638.59,127.72 1000.45,149 361.87,21.29 745.02,-42.57 1053.67,-138.36 308.65,-95.79 542.8,-223.51 862.09,-255.44 319.29,-31.93 723.73,31.93 1117.53,31.93 393.79,0 776.95,-63.86 1053.67,-138.36 181.82,-48.95 317.69,-102.5 425.73,-148.56z"/>
   <path class="fil1" d="M-0 852.32c134.57,-17.64 297.95,-19.39 468.3,-7.23 298.01,21.29 617.3,85.15 1021.74,85.15 404.44,0 894.02,-63.86 1266.54,-127.72 372.51,-63.86 627.95,-127.72 925.95,-106.43 298.01,21.29 638.59,127.72 1000.45,149 361.87,21.29 745.02,-42.57 1053.67,-138.36 308.65,-95.79 542.8,-223.51 862.09,-255.44 319.29,-31.93 723.73,31.93 1117.53,31.93 393.79,0 776.95,-63.86 1053.67,-138.36 181.82,-48.95 317.69,-102.5 425.73,-148.56l0 814.35c0,66.86 0,0 0,234.15 -234.15,0 -172.23,0 -234.15,0l-8727.38 0c-57.07,0 0,0 -234.15,0 0,-392.48 0,-162.44 0,-234.15l0 -158.33z"/>
  </g>
 </g>
</svg>
