<?xml version="1.0" encoding="UTF-8"?>
<!DOCTYPE svg PUBLIC "-//W3C//DTD SVG 1.1//EN" "http://www.w3.org/Graphics/SVG/1.1/DTD/svg11.dtd">
<!-- Creator: CorelDRAW -->
<svg xmlns="http://www.w3.org/2000/svg" xml:space="preserve" width="27.9943mm" height="27.0327mm" version="1.1" style="shape-rendering:geometricPrecision; text-rendering:geometricPrecision; image-rendering:optimizeQuality; fill-rule:evenodd; clip-rule:evenodd"
viewBox="0 0 10.68 10.31"
 xmlns:xlink="http://www.w3.org/1999/xlink"
 xmlns:xodm="http://www.corel.com/coreldraw/odm/2003">
 <defs>
  <style type="text/css">
   <![CDATA[
    .fil5 {fill:#00B3FE;fill-rule:nonzero}
    .fil0 {fill:#1F2A35;fill-rule:nonzero}
    .fil4 {fill:#555E66;fill-rule:nonzero}
    .fil3 {fill:#C47639;fill-rule:nonzero}
    .fil1 {fill:#FF9A55;fill-rule:nonzero}
    .fil2 {fill:#FFA76A;fill-rule:nonzero}
   ]]>
  </style>
 </defs>
 <g id="Capa_x0020_1">
  <metadata id="CorelCorpID_0Corel-Layer"/>
  <g id="_2558021134704">
   <path class="fil0" d="M5.43 0c-2.85,0 -5.15,2.31 -5.15,5.15 0,2.85 2.31,5.15 5.15,5.15 2.85,0 5.15,-2.31 5.15,-5.15 0,-2.85 -2.31,-5.15 -5.15,-5.15z"/>
   <path class="fil1" d="M3.45 8.6c0.02,0.18 -0.59,0.41 -1.47,0.33 -0.86,-0.09 -1.35,-0.46 -1.19,-0.72 0.61,-0.99 0.53,-2.09 0.49,-2.57 -0.04,-0.48 2.38,0.29 2.38,0.51 0,0.22 -0.34,1.33 -0.21,2.45z"/>
   <path class="fil2" d="M0.99 2.67c1.06,-1.21 2.94,-0.73 3.36,0.09 0.53,1.02 0.21,1.24 0.24,1.47 0.08,0.65 0.16,1.14 0.2,1.33 0.01,0.05 -0.03,0.1 -0.08,0.11l-0.25 0.04c0,0 -0.05,0.62 -0.09,1.11 -0.02,0.26 -0.71,0.24 -1.35,0.3 -0.6,0.06 -1.42,-0.31 -1.61,-0.5 -0.27,-0.29 -0.64,-0.89 -0.77,-1.68 -0.22,-1.32 0.16,-2.04 0.36,-2.27z"/>
   <path class="fil3" d="M4.44 2.96c0,0 0.05,-0.39 -0.03,-0.56 -0.24,-0.54 -1.32,-0.98 -2.4,-1.01 -1.37,-0.04 -1.98,1.82 -2.01,2.62 -0.03,0.92 0.73,1.76 0.86,2.53 0.07,0.43 0.67,-0.34 0.67,-0.34l0.28 -1.07c0,0 -0.18,-1.25 0.52,-1.02 0.5,0.17 0.3,0.95 0.3,0.95l0.25 -0.02c0,0 0.11,-0.95 0.31,-1.22 0.2,-0.27 1.24,-0.85 1.24,-0.85z"/>
   <path class="fil1" d="M7.23 8.6c-0.02,0.18 0.59,0.41 1.47,0.33 0.86,-0.09 1.35,-0.46 1.19,-0.72 -0.61,-0.99 -0.53,-2.09 -0.49,-2.57 0.04,-0.48 -2.38,0.29 -2.38,0.51 -0,0.22 0.34,1.33 0.21,2.45z"/>
   <path class="fil2" d="M9.68 2.67c-1.06,-1.21 -2.94,-0.73 -3.36,0.09 -0.53,1.02 -0.21,1.24 -0.24,1.47 -0.08,0.65 -0.16,1.14 -0.2,1.33 -0.01,0.05 0.03,0.1 0.08,0.11l0.25 0.04c0,0 0.05,0.62 0.09,1.11 0.02,0.26 0.71,0.24 1.35,0.3 0.6,0.06 1.42,-0.31 1.61,-0.5 0.27,-0.29 0.64,-0.89 0.77,-1.68 0.21,-1.32 -0.16,-2.04 -0.36,-2.27z"/>
   <path class="fil3" d="M6.24 2.96c0,0 -0.05,-0.39 0.03,-0.56 0.24,-0.54 1.32,-0.98 2.4,-1.01 1.37,-0.04 1.98,1.82 2.01,2.62 0.03,0.92 -0.73,1.76 -0.86,2.53 -0.07,0.43 -0.67,-0.34 -0.67,-0.34l-0.28 -1.07c0,0 0.18,-1.25 -0.52,-1.02 -0.5,0.17 -0.3,0.95 -0.3,0.95l-0.25 -0.02c0,0 -0.11,-0.95 -0.31,-1.22 -0.2,-0.27 -1.24,-0.85 -1.24,-0.85z"/>
   <path class="fil4" d="M1.55 2.49c0.23,0 0.49,0.07 0.78,0.2 0.01,-0.02 0.03,-0.04 0.05,-0.06 0.04,-0.05 0.09,-0.1 0.15,-0.13 -0.02,-0.07 -0.04,-0.13 -0.07,-0.17 -0.19,-0.25 -0.46,-0.36 -0.69,-0.29 -0.19,0.06 -0.33,0.23 -0.35,0.45 0.04,-0.01 0.09,-0.01 0.14,-0.01zm-0.27 0.17c-0.06,0.02 -0.11,0.04 -0.16,0.07 0.05,-0.02 0.11,-0.02 0.17,-0.01 -0,-0.02 -0.01,-0.04 -0.01,-0.07zm1.17 0.09c0.04,0.02 0.08,0.04 0.12,0.07 -0.01,-0.06 -0.01,-0.12 -0.02,-0.18 -0.03,0.02 -0.05,0.04 -0.07,0.07 -0.01,0.01 -0.02,0.03 -0.03,0.04zm-1.02 0.03c0.05,0.03 0.11,0.08 0.17,0.13 0.08,0.09 0.12,0.17 0.16,0.26l0.01 0.03c0.1,-0.1 0.26,-0.12 0.43,-0.07 0.01,-0.12 0.03,-0.23 0.07,-0.32 -0.33,-0.15 -0.61,-0.21 -0.86,-0.18 0,0.05 0.01,0.1 0.02,0.15zm1.3 0.29c0.01,0.13 0.02,0.25 0.04,0.35 0.06,-0.07 0.13,-0.12 0.21,-0.16 -0.07,-0.06 -0.15,-0.13 -0.24,-0.19zm-1.51 -0.22c-0.06,0 -0.11,0.02 -0.14,0.06 -0.09,0.08 -0.11,0.23 -0,0.35 0.07,0.07 0.17,0.13 0.3,0.19 0.01,-0.18 -0.02,-0.36 -0.05,-0.53 -0,-0.02 -0.01,-0.04 -0.01,-0.05 -0.03,-0.01 -0.06,-0.02 -0.09,-0.02zm1.13 0.71l0.03 0.01c0.01,-0.02 0.01,-0.04 0.01,-0.07 0,-0.06 -0.02,-0.11 -0.06,-0.15 0,0.07 0.01,0.14 0.02,0.21zm-0.85 -0.06l0.03 0.01c0.05,0.02 0.09,0.04 0.14,0.06 -0.02,-0.1 -0,-0.18 0.02,-0.24 -0.02,-0.04 -0.04,-0.07 -0.05,-0.11 -0.04,-0.08 -0.07,-0.15 -0.14,-0.22 -0.01,-0.01 -0.02,-0.03 -0.04,-0.04 0.03,0.17 0.05,0.35 0.04,0.54zm1.01 0.09c0.03,0.01 0.06,0.02 0.1,0.02 0.01,-0.02 0.03,-0.05 0.05,-0.07 -0,-0.02 -0.01,-0.03 -0.01,-0.05 -0.02,-0.12 -0.04,-0.27 -0.05,-0.43 -0,-0.03 -0.01,-0.06 -0.01,-0.1 -0.02,-0.01 -0.03,-0.02 -0.05,-0.03 -0.05,-0.03 -0.1,-0.06 -0.15,-0.08 -0.03,0.09 -0.05,0.2 -0.06,0.32 0.13,0.07 0.2,0.19 0.2,0.32 -0,0.03 -0.01,0.06 -0.02,0.09zm-0.67 -0.27c0.05,0.08 0.12,0.16 0.23,0.26 0.05,0.04 0.11,0.07 0.15,0.08 -0.02,-0.14 -0.03,-0.27 -0.03,-0.39 -0.13,-0.05 -0.26,-0.04 -0.33,0.03l-0.02 0.03zm0.54 0.44c0.01,0.07 0.03,0.14 0.04,0.22 0,0.01 0.01,0.03 0.01,0.04 0.03,-0.1 0.07,-0.19 0.11,-0.28 -0.03,-0.01 -0.07,-0.02 -0.1,-0.02 -0.02,0.02 -0.04,0.03 -0.06,0.04zm0.85 -0.46c0.24,0.24 0.39,0.5 0.47,0.75 0.03,-0.06 0.06,-0.13 0.07,-0.19 0.06,-0.23 -0.02,-0.43 -0.2,-0.51 -0.12,-0.06 -0.24,-0.07 -0.35,-0.05zm-1.31 0.55c0.05,0.08 0.12,0.15 0.19,0.21 -0.01,-0.03 -0.03,-0.05 -0.05,-0.07 -0.04,-0.05 -0.09,-0.09 -0.15,-0.13zm0.97 0.01c0.04,0.1 0.09,0.2 0.15,0.29 0.03,-0.02 0.05,-0.05 0.04,-0.08 -0,-0.08 -0.08,-0.15 -0.19,-0.2zm-0.61 0.29c0.02,0.01 0.03,0.01 0.05,0.02 -0.01,-0.05 -0.02,-0.11 -0.03,-0.17 -0.02,-0.07 -0.03,-0.14 -0.04,-0.21 -0.08,-0 -0.17,-0.04 -0.26,-0.11 -0.08,-0.07 -0.14,-0.13 -0.19,-0.19 0,0.04 0.01,0.09 0.03,0.15 0.13,0.07 0.26,0.15 0.34,0.26 0.06,0.07 0.09,0.16 0.11,0.25zm0.24 0.07c0.14,0.02 0.27,0.02 0.37,-0.01l0.02 -0c-0.08,-0.13 -0.15,-0.28 -0.19,-0.42 -0.01,-0.01 -0.03,-0.01 -0.05,-0.02l-0.01 0.02c-0.07,0.13 -0.12,0.28 -0.15,0.43zm1.23 0.02c0.01,0.03 0.01,0.05 0.01,0.08 0.29,-0.16 0.43,-0.45 0.36,-0.79 -0.09,-0.48 -0.57,-0.96 -1.31,-0.97 -0.05,-0 -0.09,0.01 -0.13,0.02 0.02,0.1 0.03,0.21 0.04,0.32 0.15,0.09 0.28,0.19 0.4,0.3 0.17,-0.05 0.34,-0.04 0.52,0.05 0.24,0.11 0.34,0.37 0.27,0.66 -0.03,0.11 -0.08,0.23 -0.16,0.34zm-0.63 0.02c0.04,0.04 0.08,0.08 0.13,0.1 0.05,0.03 0.1,0.04 0.15,0.05 0.08,-0.06 0.14,-0.12 0.2,-0.19 -0.07,-0.28 -0.23,-0.58 -0.51,-0.86 -0.11,0.05 -0.2,0.13 -0.28,0.23 0.01,0.03 0.02,0.07 0.03,0.11 0.2,0.08 0.38,0.2 0.38,0.37 0,0.08 -0.03,0.14 -0.09,0.19zm-1.57 -0.02c0.09,0 0.15,0.06 0.21,0.13 0.07,0.07 0.15,0.16 0.31,0.22 0.06,-0.1 0.1,-0.22 0.1,-0.34 -0.15,-0.08 -0.29,-0.2 -0.37,-0.36 -0.03,-0.05 -0.05,-0.1 -0.07,-0.15 -0.08,-0.04 -0.15,-0.07 -0.23,-0.1 -0.02,0.14 -0.07,0.27 -0.16,0.41l-0.11 -0.07c0.08,-0.13 0.12,-0.26 0.14,-0.39 -0.16,-0.07 -0.3,-0.14 -0.39,-0.24 -0.12,-0.14 -0.13,-0.31 -0.06,-0.44 -0.08,0.09 -0.17,0.38 -0.14,0.74 0.02,0.26 0.12,0.63 0.45,0.92 0.03,-0.16 0.13,-0.29 0.27,-0.33 0.02,-0.01 0.04,-0.01 0.06,-0.01zm0.65 0.39c0.05,0.01 0.11,0.02 0.18,0.03 -0.01,-0.08 -0.01,-0.16 -0.01,-0.24 -0,-0.03 -0.01,-0.06 -0.01,-0.09 -0.02,-0.01 -0.04,-0.01 -0.06,-0.02 -0.01,0.11 -0.04,0.22 -0.1,0.32zm0.32 0.04c0.29,0.01 0.54,-0.06 0.73,-0.16 -0.02,-0.01 -0.04,-0.02 -0.06,-0.03 -0.07,-0.04 -0.13,-0.09 -0.19,-0.15 -0.02,0.01 -0.04,0.02 -0.07,0.02 -0.12,0.03 -0.27,0.04 -0.43,0.01 -0,0.01 -0,0.03 -0,0.04 0.01,0.09 0.01,0.18 0.01,0.26zm-1.18 0.01c0.32,0.22 0.54,0.1 0.63,0.02 -0.16,-0.07 -0.25,-0.17 -0.31,-0.23 -0.07,-0.08 -0.1,-0.09 -0.14,-0.08 -0.11,0.03 -0.18,0.15 -0.19,0.3zm0.02 0.17c0.05,0.2 0.22,0.4 0.56,0.42 0.14,0.01 0.25,-0.03 0.33,-0.12 0.07,-0.08 0.11,-0.2 0.13,-0.36 -0.1,-0.01 -0.19,-0.03 -0.26,-0.05l-0.02 0.02c-0.16,0.16 -0.42,0.25 -0.73,0.08zm1.18 -0.04c0.05,0.18 0.15,0.32 0.32,0.41 0.26,0.15 0.52,0.08 0.67,-0.19 0.08,-0.13 0.12,-0.31 0.11,-0.51 -0.07,0.02 -0.14,0.03 -0.2,0.03 -0.23,0.15 -0.53,0.26 -0.9,0.25zm0.58 0.63c-0.11,0 -0.22,-0.03 -0.33,-0.09 -0.14,-0.08 -0.25,-0.2 -0.32,-0.34 -0.03,0.1 -0.07,0.18 -0.13,0.25 -0.1,0.12 -0.26,0.18 -0.44,0.16 -0.47,-0.04 -0.67,-0.36 -0.7,-0.63l-0 -0.03c-0.42,-0.33 -0.54,-0.77 -0.57,-1.07 -0.04,-0.38 0.06,-0.72 0.18,-0.85 0.13,-0.15 0.29,-0.25 0.47,-0.3l0 -0.02c0.02,-0.29 0.19,-0.51 0.44,-0.59 0.29,-0.09 0.61,0.04 0.84,0.33 0.04,0.05 0.07,0.12 0.09,0.2 0.05,-0.01 0.1,-0.02 0.16,-0.02 0.82,0.01 1.35,0.55 1.44,1.08 0.08,0.42 -0.1,0.78 -0.48,0.96 0.01,0.24 -0.04,0.46 -0.13,0.63 -0.12,0.22 -0.31,0.33 -0.52,0.33z"/>
   <path class="fil5" d="M2.58 2.27c-0.39,0.04 -0.47,0.27 -0.49,0.4 0.17,-0.05 0.29,-0.03 0.39,-0.02 0.11,0.01 0.13,0.01 0.16,-0.03 0.06,-0.09 0.04,-0.23 -0.05,-0.35zm-0.43 -0.22c-0.12,0 -0.25,0.04 -0.39,0.14 -0.11,0.08 -0.17,0.18 -0.17,0.3 -0,0.11 0.05,0.23 0.13,0.36 0.08,-0.06 0.16,-0.1 0.23,-0.13l0 -0.03c0.02,-0.22 0.16,-0.46 0.51,-0.54 -0.08,-0.06 -0.19,-0.1 -0.31,-0.1zm-0.18 1.08c0.02,0.02 0.04,0.04 0.07,0.06 0.02,-0.01 0.04,-0.02 0.06,-0.03 -0.07,-0.09 -0.11,-0.19 -0.13,-0.31 -0.05,0.02 -0.1,0.06 -0.16,0.09 0.06,0.05 0.11,0.11 0.16,0.18zm0.48 -0.03c0.1,0 0.2,0.02 0.3,0.06 0.05,0.02 0.1,0.05 0.14,0.07 0.08,-0.02 0.16,-0.05 0.24,-0.07 -0.07,-0.12 -0.12,-0.25 -0.14,-0.41 -0.02,-0.14 -0,-0.29 0.04,-0.43 -0.09,-0.02 -0.19,-0.04 -0.3,-0.04 0.08,0.14 0.09,0.3 0.01,0.42 -0.07,0.11 -0.18,0.1 -0.28,0.09 -0.1,-0.01 -0.22,-0.02 -0.38,0.03 0.01,0.11 0.06,0.23 0.14,0.32 0.07,-0.02 0.14,-0.03 0.22,-0.03zm-0.06 0.14c0.03,0.01 0.05,0.02 0.08,0.03 0.06,0.01 0.13,0.01 0.2,0.01 -0.09,-0.03 -0.19,-0.04 -0.28,-0.03zm1.26 -0.2c0.03,0 0.05,0 0.08,0.01 0.19,0.03 0.3,0.15 0.33,0.29 0,-0.12 -0.11,-0.41 -0.37,-0.66 -0.12,-0.12 -0.29,-0.25 -0.51,-0.33 -0.04,0.13 -0.05,0.25 -0.04,0.38 0.02,0.15 0.07,0.27 0.14,0.39 0.13,-0.04 0.26,-0.07 0.38,-0.07zm-1.5 0.26c0.04,0.03 0.09,0.07 0.13,0.1 0.06,0.04 0.12,0.09 0.17,0.13 0.06,-0.05 0.16,-0.08 0.27,-0.09 0.1,-0 0.19,0.01 0.26,0.02 -0.03,-0.03 -0.07,-0.06 -0.11,-0.09 -0.15,0.04 -0.29,0.05 -0.43,0.02 -0.09,-0.02 -0.17,-0.06 -0.24,-0.12 -0.02,0.01 -0.03,0.01 -0.05,0.02zm1.2 -0.07c0.11,0.14 0.25,0.26 0.38,0.37 0.01,0.01 0.03,0.02 0.04,0.03 0.1,-0.04 0.15,-0.11 0.15,-0.18 0.01,-0.12 -0.07,-0.25 -0.23,-0.27 -0.1,-0.01 -0.22,0.01 -0.35,0.05zm-1.66 -0.19c-0.23,0.18 -0.37,0.39 -0.45,0.59 0.02,-0.01 0.04,-0.01 0.06,-0.02 0.08,-0.02 0.16,-0.02 0.24,-0.01 0.01,-0.02 0.02,-0.04 0.04,-0.06 0.07,-0.1 0.18,-0.2 0.32,-0.29l-0.03 -0.03c-0.07,-0.06 -0.13,-0.13 -0.18,-0.19zm1.49 0.48c0.04,0.02 0.07,0.03 0.11,0.05 0.08,0.04 0.15,0.07 0.25,0.08 0.02,0 0.04,0 0.05,0 -0.13,-0.11 -0.27,-0.23 -0.38,-0.38l-0.03 0.01c-0.05,0.02 -0.1,0.03 -0.15,0.05 0.08,0.07 0.12,0.14 0.14,0.19zm-1.01 -0.04c0.04,0.09 0.07,0.19 0.09,0.28 0.03,-0.02 0.06,-0.03 0.09,-0.05 0,-0.03 0.01,-0.05 0.02,-0.07 -0.05,-0.04 -0.11,-0.09 -0.17,-0.14l-0.03 -0.02zm1.71 0.24c0.02,0.02 0.03,0.03 0.05,0.05 0.03,-0.05 0.06,-0.1 0.08,-0.16 -0.03,0.05 -0.07,0.09 -0.13,0.12zm-2.2 -0.08c0.15,0.04 0.29,0.12 0.42,0.19 0.01,-0.01 0.03,-0.01 0.04,-0.02l-0 -0.02c-0.03,-0.15 -0.09,-0.29 -0.17,-0.42 -0.12,0.07 -0.22,0.16 -0.28,0.25l-0.01 0.01zm-0.48 -0.81c-0.04,0 -0.08,0 -0.12,0.01 -0.3,0.06 -0.45,0.28 -0.39,0.58 0.03,0.15 0.11,0.31 0.24,0.46 0.04,-0.06 0.08,-0.11 0.14,-0.15 0.07,-0.26 0.24,-0.53 0.52,-0.77 -0.12,-0.08 -0.25,-0.12 -0.39,-0.12zm1.36 0.79c0.11,0.09 0.2,0.19 0.28,0.28 0.13,-0.05 0.22,-0.14 0.23,-0.24l-0 -0.04c-0.09,-0.03 -0.19,-0.05 -0.34,-0.05 -0.07,0 -0.13,0.02 -0.16,0.04zm-0.93 0.15c-0.01,0.03 -0,0.07 0.02,0.09 0.05,0.06 0.15,0.06 0.28,0.03 -0.09,-0.05 -0.19,-0.1 -0.3,-0.12zm0.87 0.02c0.01,0.02 0.02,0.04 0.03,0.06 0.04,0.04 0.09,0.07 0.15,0.07 -0.05,-0.05 -0.1,-0.1 -0.15,-0.15l-0.03 0.02zm0.42 0.22c0.07,0.1 0.12,0.2 0.16,0.29 0.35,-0.1 0.61,-0.24 0.77,-0.42 -0.03,-0.03 -0.07,-0.07 -0.11,-0.1 -0.06,0.01 -0.13,0.01 -0.21,0.01 -0.12,-0.01 -0.21,-0.05 -0.29,-0.09l-0.03 -0.01c-0.01,0.14 -0.12,0.26 -0.28,0.33zm-0.62 -0.03c0.01,0.01 0.03,0.02 0.04,0.03 0.09,0.07 0.2,0.18 0.32,0.3 0.02,0.02 0.05,0.05 0.07,0.07 0.02,-0 0.03,-0.01 0.05,-0.01 0.06,-0.01 0.12,-0.02 0.17,-0.03 -0.03,-0.09 -0.09,-0.18 -0.16,-0.28 -0.14,0.03 -0.28,-0.02 -0.36,-0.12 -0.02,-0.02 -0.04,-0.05 -0.05,-0.08 -0.03,0.01 -0.06,0.03 -0.09,0.04 0,0.03 0.01,0.05 0.01,0.08zm-1.15 0.1c0.23,0.17 0.55,0.29 0.95,0.32 0.05,-0.11 0.07,-0.23 0.06,-0.36 -0.03,-0.02 -0.06,-0.04 -0.09,-0.06 -0.2,0.07 -0.41,0.09 -0.53,-0.04 -0.05,-0.06 -0.07,-0.13 -0.05,-0.21 -0.06,-0.01 -0.11,-0 -0.17,0.01 -0.05,0.01 -0.1,0.03 -0.14,0.06 -0.02,0.09 -0.03,0.19 -0.03,0.27zm1.1 0.33c0.1,0 0.2,-0 0.31,-0.01 -0.09,-0.09 -0.18,-0.18 -0.25,-0.24 -0.01,0.09 -0.02,0.18 -0.05,0.26zm0.59 0.08c0.04,0.04 0.09,0.08 0.13,0.12 0.01,-0.03 0.01,-0.06 0.01,-0.1 -0,-0.02 -0,-0.03 -0,-0.05 -0.04,0.01 -0.09,0.02 -0.14,0.03zm-1.67 -0.22c0.02,0.07 0.04,0.13 0.07,0.19 0.11,0.21 0.29,0.31 0.48,0.26 0.13,-0.04 0.23,-0.1 0.3,-0.18 -0.34,-0.03 -0.62,-0.13 -0.85,-0.27zm1.91 0.43c0.06,0.04 0.11,0.07 0.16,0.08 0.31,0.06 0.58,-0.02 0.71,-0.23 0.11,-0.17 0.1,-0.38 -0.03,-0.57 -0.18,0.19 -0.45,0.34 -0.82,0.44 0,0.03 0.01,0.05 0.01,0.08 0,0.07 -0.01,0.13 -0.03,0.19zm-2.13 -0.59c-0.12,0.31 -0.03,0.62 0.24,0.84 0.38,0.3 1.06,0.36 1.63,-0.12 0.04,-0.03 0.07,-0.06 0.09,-0.1 -0.08,-0.06 -0.16,-0.14 -0.24,-0.22 -0.18,0.02 -0.34,0.03 -0.49,0.03 -0.09,0.15 -0.24,0.25 -0.43,0.3 -0.25,0.07 -0.5,-0.06 -0.63,-0.33 -0.05,-0.1 -0.09,-0.22 -0.1,-0.36 -0.02,-0.02 -0.04,-0.03 -0.06,-0.05zm0.95 1.21c-0.31,0 -0.59,-0.1 -0.79,-0.27 -0.33,-0.27 -0.43,-0.66 -0.26,-1.04 -0.17,-0.18 -0.27,-0.38 -0.31,-0.56 -0.07,-0.37 0.12,-0.66 0.5,-0.74 0.16,-0.03 0.32,-0.01 0.46,0.05 -0.04,-0.09 -0.06,-0.18 -0.06,-0.27 0,-0.16 0.08,-0.3 0.23,-0.41 0.38,-0.28 0.74,-0.16 0.94,0.02l0.02 0.02c0.16,-0.01 0.31,0.01 0.44,0.05 0.07,-0.15 0.16,-0.29 0.29,-0.42 0.26,-0.26 0.85,-0.68 1.96,-0.56 1.63,0.18 2.44,1.36 2.45,1.37l-0.11 0.08c-0.01,-0.01 -0.79,-1.14 -2.36,-1.31 -1.05,-0.12 -1.61,0.27 -1.85,0.52 -0.11,0.11 -0.2,0.24 -0.26,0.37 0.24,0.09 0.43,0.23 0.56,0.36 0.28,0.27 0.42,0.58 0.41,0.76 -0,0.2 -0.06,0.38 -0.16,0.54l0.01 0.01c0.17,0.23 0.19,0.51 0.04,0.74 -0.16,0.25 -0.49,0.36 -0.85,0.29 -0.06,-0.01 -0.13,-0.05 -0.2,-0.09 -0.03,0.04 -0.07,0.08 -0.11,0.12 -0.32,0.27 -0.68,0.38 -1,0.38z"/>
   <path class="fil5" d="M9.89 3.71c0,0.91 -0.74,1.65 -1.65,1.65 -0.91,0 -1.65,-0.74 -1.65,-1.65 0,-0.91 0.74,-1.65 1.65,-1.65 0.91,0 1.65,0.74 1.65,1.65z"/>
   <path class="fil4" d="M7.04 3.77c-0.18,-0.16 -0.32,-0.34 -0.4,-0.46 -0.02,0.06 -0.03,0.12 -0.04,0.18 0.08,0.1 0.18,0.22 0.3,0.34 0.04,-0.02 0.09,-0.04 0.13,-0.06z"/>
   <path class="fil4" d="M7.15 4.02c0.05,-0.02 0.1,-0.04 0.14,-0.07 -0.05,-0.03 -0.09,-0.06 -0.13,-0.09 -0.05,0.02 -0.09,0.04 -0.14,0.06 0.04,0.03 0.08,0.07 0.13,0.1z"/>
   <path class="fil4" d="M8.61 4.28c0.38,-0.05 0.75,-0.18 0.97,-0.37l-0.09 -0.1c-0.36,0.3 -1.11,0.43 -1.68,0.34 -0.05,0.04 -0.11,0.07 -0.17,0.1 0.29,0.07 0.63,0.08 0.96,0.03z"/>
   <path class="fil4" d="M7.29 4.11c0.02,0.01 0.04,0.02 0.06,0.04 0.04,0.02 0.08,0.04 0.12,0.05 0.05,-0.03 0.11,-0.06 0.16,-0.09 -0.07,-0.02 -0.14,-0.04 -0.2,-0.07 -0.05,0.03 -0.1,0.05 -0.15,0.07z"/>
   <path class="fil4" d="M7.29 4.45c0.32,0.16 0.8,0.2 1.26,0.13 0.38,-0.06 0.75,-0.18 0.97,-0.37l-0.09 -0.1c-0.44,0.36 -1.45,0.48 -2.01,0.25 -0.06,0.03 -0.12,0.05 -0.17,0.07l0.03 0.02z"/>
   <path class="fil4" d="M6.79 3.87c-0.08,-0.09 -0.14,-0.18 -0.19,-0.25 -0,0.08 -0,0.16 0.01,0.24 0.01,0.02 0.03,0.04 0.04,0.05 0.04,-0.01 0.09,-0.03 0.14,-0.04z"/>
   <path class="fil4" d="M6.89 3.98c-0.05,0.02 -0.1,0.03 -0.14,0.05 0.03,0.03 0.06,0.07 0.1,0.1 0.05,-0.01 0.1,-0.03 0.15,-0.05 -0.04,-0.03 -0.07,-0.07 -0.11,-0.1z"/>
   <path class="fil4" d="M7.11 4.18c-0.05,0.02 -0.1,0.04 -0.15,0.05 0.04,0.04 0.09,0.07 0.14,0.1 0.05,-0.02 0.11,-0.04 0.16,-0.06 -0.05,-0.03 -0.1,-0.07 -0.15,-0.1z"/>
   <path class="fil4" d="M7.8 4c0.03,-0.03 0.07,-0.05 0.1,-0.08l0.03 -0.03c-0.07,-0.01 -0.14,-0.02 -0.21,-0.04 -0.04,0.04 -0.09,0.07 -0.14,0.1 0.07,0.02 0.14,0.04 0.21,0.06z"/>
   <path class="fil4" d="M7.98 4.03c0.22,0.02 0.47,0.02 0.7,-0.02 0.38,-0.06 0.75,-0.18 0.97,-0.37l-0.09 -0.1c-0.32,0.26 -0.94,0.4 -1.47,0.37 -0.04,0.04 -0.07,0.08 -0.11,0.12l-0.01 0.01z"/>
   <path class="fil4" d="M7.42 3.88l0.01 0c0.05,-0.03 0.09,-0.06 0.13,-0.09 -0.03,-0.01 -0.06,-0.02 -0.08,-0.04 -0.03,-0.01 -0.05,-0.03 -0.08,-0.04 -0.04,0.03 -0.08,0.06 -0.12,0.08 0.05,0.03 0.09,0.06 0.14,0.08z"/>
   <path class="fil4" d="M7.16 3.71c0.04,-0.02 0.08,-0.05 0.12,-0.08 -0.26,-0.18 -0.44,-0.42 -0.55,-0.58 -0.02,0.05 -0.04,0.1 -0.06,0.15 0.11,0.15 0.27,0.34 0.48,0.5z"/>
   <path class="fil4" d="M6.84 4.13c-0.07,0.02 -0.14,0.04 -0.18,0.05 0.01,0.04 0.03,0.09 0.04,0.13 0.07,-0.01 0.16,-0.04 0.26,-0.07 -0.04,-0.03 -0.08,-0.07 -0.12,-0.11z"/>
   <path class="fil4" d="M7.15 4.02c-0.05,0.02 -0.11,0.04 -0.16,0.06 0.04,0.03 0.08,0.07 0.12,0.1 0.06,-0.02 0.11,-0.05 0.17,-0.07 -0.05,-0.03 -0.09,-0.06 -0.14,-0.09z"/>
   <path class="fil4" d="M7.72 3.67c-0.05,0.05 -0.1,0.09 -0.15,0.12 0.05,0.02 0.1,0.04 0.16,0.05 0.03,-0.02 0.06,-0.05 0.09,-0.08 0.37,-0.35 0.62,-1.07 0.61,-1.68 -0.04,-0 -0.09,-0.01 -0.13,-0.01 0.01,0.57 -0.22,1.27 -0.57,1.59z"/>
   <path class="fil4" d="M7.41 4.03l0.02 0.01c0.05,-0.03 0.1,-0.06 0.15,-0.09 -0.05,-0.02 -0.11,-0.04 -0.15,-0.06 -0.05,0.03 -0.09,0.05 -0.14,0.08 0.04,0.02 0.08,0.05 0.12,0.07z"/>
   <path class="fil4" d="M7.29 3.96c-0.05,0.02 -0.1,0.05 -0.14,0.07 0.04,0.03 0.09,0.06 0.14,0.09 0.05,-0.02 0.1,-0.05 0.15,-0.07l-0.02 -0.01c-0.04,-0.02 -0.08,-0.04 -0.12,-0.07z"/>
   <path class="fil4" d="M6.99 4.08c-0.05,0.02 -0.1,0.03 -0.15,0.05 0.04,0.04 0.08,0.07 0.12,0.11 0.05,-0.02 0.1,-0.03 0.15,-0.05 -0.04,-0.03 -0.08,-0.07 -0.12,-0.1z"/>
   <path class="fil4" d="M7.59 3.94c0.05,-0.03 0.09,-0.06 0.14,-0.1 -0.06,-0.01 -0.11,-0.03 -0.16,-0.05 -0.04,0.03 -0.09,0.06 -0.13,0.09 0.05,0.02 0.1,0.04 0.15,0.06z"/>
   <path class="fil4" d="M7.63 4.11c0.06,0.02 0.12,0.03 0.19,0.04 0.05,-0.04 0.11,-0.08 0.16,-0.12 -0.06,-0.01 -0.12,-0.02 -0.18,-0.03 -0.05,0.04 -0.11,0.08 -0.17,0.11z"/>
   <path class="fil4" d="M7.1 4.34c-0.14,0.05 -0.27,0.07 -0.35,0.09 0.02,0.04 0.04,0.08 0.07,0.12 0.11,-0.02 0.26,-0.06 0.43,-0.12 -0.05,-0.03 -0.1,-0.06 -0.15,-0.09z"/>
   <path class="fil4" d="M7.94 3.88c0.06,0.01 0.11,0.01 0.17,0.02 0.37,-0.42 0.58,-1.19 0.51,-1.78 -0.05,-0.01 -0.09,-0.02 -0.14,-0.03 0.08,0.59 -0.15,1.41 -0.54,1.79z"/>
   <path class="fil4" d="M7.26 4.28c0.03,0.02 0.06,0.03 0.09,0.05 0.02,0.01 0.05,0.02 0.08,0.03 0.08,-0.03 0.15,-0.07 0.23,-0.11 -0.07,-0.02 -0.13,-0.03 -0.19,-0.06 -0.07,0.03 -0.14,0.06 -0.2,0.09z"/>
   <path class="fil4" d="M7.47 4.2c0.06,0.02 0.12,0.04 0.19,0.06 0.06,-0.03 0.11,-0.07 0.17,-0.1 -0.07,-0.01 -0.13,-0.02 -0.19,-0.04 -0.05,0.03 -0.11,0.06 -0.16,0.09z"/>
   <path class="fil4" d="M7.26 4.28c-0.06,0.02 -0.11,0.04 -0.16,0.06 0.05,0.03 0.1,0.06 0.15,0.09 0.06,-0.02 0.11,-0.04 0.17,-0.07 -0.03,-0.01 -0.05,-0.02 -0.08,-0.03 -0.03,-0.02 -0.06,-0.03 -0.09,-0.05z"/>
   <path class="fil4" d="M7.9 3.92c-0.03,0.03 -0.07,0.06 -0.1,0.08 0.06,0.01 0.12,0.02 0.18,0.03l0.01 -0.01c0.04,-0.03 0.08,-0.07 0.11,-0.12 -0.06,-0 -0.11,-0.01 -0.17,-0.02l-0.03 0.03z"/>
   <path class="fil4" d="M7.54 3.44c-0.08,0.08 -0.16,0.14 -0.25,0.2 0.04,0.03 0.08,0.05 0.12,0.08 0.08,-0.05 0.15,-0.11 0.22,-0.18 0.31,-0.31 0.53,-0.91 0.57,-1.46 -0.05,0 -0.09,0.01 -0.14,0.01 -0.04,0.51 -0.24,1.07 -0.52,1.35z"/>
   <path class="fil4" d="M7.28 3.79c-0.04,-0.03 -0.08,-0.06 -0.12,-0.09 -0.04,0.02 -0.08,0.04 -0.12,0.06 0.04,0.03 0.07,0.06 0.11,0.09 0.04,-0.02 0.08,-0.04 0.12,-0.07z"/>
   <path class="fil4" d="M6.65 3.92c-0.01,0 -0.03,0.01 -0.04,0.01l0 0.03c0.01,0.04 0.01,0.07 0.02,0.1 0.03,-0.01 0.07,-0.02 0.11,-0.03 -0.04,-0.04 -0.07,-0.08 -0.1,-0.11z"/>
   <path class="fil4" d="M7.02 3.93c-0.04,-0.03 -0.08,-0.07 -0.11,-0.1 -0.04,0.02 -0.08,0.03 -0.12,0.05 0.03,0.04 0.06,0.07 0.1,0.11 0.04,-0.02 0.09,-0.03 0.14,-0.06z"/>
   <path class="fil4" d="M7.16 3.86c-0.04,-0.03 -0.08,-0.06 -0.11,-0.09 -0.05,0.02 -0.09,0.04 -0.13,0.06 0.04,0.03 0.07,0.07 0.11,0.1 0.04,-0.02 0.09,-0.04 0.14,-0.06z"/>
   <path class="fil4" d="M6.79 3.87c-0.05,0.02 -0.1,0.03 -0.14,0.04 0.03,0.04 0.06,0.07 0.1,0.11 0.04,-0.01 0.09,-0.03 0.14,-0.05 -0.04,-0.04 -0.07,-0.07 -0.1,-0.11z"/>
   <path class="fil4" d="M7.41 3.71c-0.04,-0.02 -0.08,-0.05 -0.12,-0.08 -0.04,0.03 -0.08,0.05 -0.12,0.08 0.04,0.03 0.08,0.06 0.12,0.09 0.04,-0.03 0.08,-0.05 0.12,-0.08z"/>
   <path class="fil4" d="M9.02 2.25c0.23,0.28 0.37,0.64 0.37,1.04 0,0.91 -0.74,1.65 -1.65,1.65 -0.28,0 -0.55,-0.07 -0.78,-0.19 0.3,0.37 0.76,0.61 1.28,0.61 0.91,0 1.65,-0.74 1.65,-1.65 0,-0.63 -0.35,-1.18 -0.87,-1.45z"/>
  </g>
 </g>
</svg>
