<?xml version="1.0" encoding="UTF-8"?>
<!DOCTYPE svg PUBLIC "-//W3C//DTD SVG 1.1//EN" "http://www.w3.org/Graphics/SVG/1.1/DTD/svg11.dtd">
<!-- Creator: CorelDRAW 2019 (64-Bit) -->
<svg xmlns="http://www.w3.org/2000/svg" xml:space="preserve" width="9.8176mm" height="11.1305mm" version="1.1" style="shape-rendering:geometricPrecision; text-rendering:geometricPrecision; image-rendering:optimizeQuality; fill-rule:evenodd; clip-rule:evenodd"
viewBox="0 0 1.88 2.13"
 xmlns:xlink="http://www.w3.org/1999/xlink">
 <defs>
  <style type="text/css">
   <![CDATA[
    .str0 {stroke:#28A8E0;stroke-width:0.04;stroke-miterlimit:22.9256}
    .fil2 {fill:#EBECEC}
    .fil1 {fill:#28A8E0}
    .fil0 {fill:url(#id0)}
   ]]>
  </style>
  <linearGradient id="id0" gradientUnits="userSpaceOnUse" x1="-0" y1="1.07" x2="1.88" y2="1.07">
   <stop offset="0" style="stop-opacity:1; stop-color:#0070BA"/>
   <stop offset="1" style="stop-opacity:1; stop-color:#2B9BE6"/>
  </linearGradient>
 </defs>
 <g id="Capa_x0020_1">
  <metadata id="CorelCorpID_0Corel-Layer"/>
  <path class="fil0" d="M0.94 1.73l-0.49 -0.14 -0.03 -0.38 0.24 -0 0.02 0.19c0.02,0.01 0.23,0.07 0.25,0.07 0.01,-0 0.01,0.01 0.01,-0.03l-0 -0.33c-0.07,0 -0.5,0.01 -0.53,-0.01l-0.02 -0.23c0.03,-0.01 0.47,-0 0.55,-0l0 -0.24 -0.57 -0 -0.02 -0.23 0.58 0 -0 -0.19c-0,-0.07 -0.03,-0.05 0.26,-0.05 0.17,0 0.34,0 0.51,0 0.01,0.05 -0.03,0.34 -0.03,0.41 -0.01,0.13 -0.02,0.27 -0.04,0.41 -0.02,0.27 -0.04,0.55 -0.07,0.82 -0.02,0.01 -0.6,0.17 -0.62,0.17l0 -0.24zm-0.77 0.2c0.13,0.03 0.44,0.12 0.57,0.16l0.19 0.05 0.39 -0.11c0.03,-0.01 0.36,-0.1 0.39,-0.11 0,-0.09 0.05,-0.6 0.06,-0.72l0.03 -0.36c0.01,-0.11 0.03,-0.26 0.03,-0.36 0.01,-0.12 0.04,-0.38 0.04,-0.48l-1.88 0c0,0.04 0.01,0.08 0.01,0.11l0.09 0.96c0,0.04 0.01,0.08 0.01,0.12l0.04 0.48c0,0.04 0.01,0.08 0.01,0.12 0,0.04 0.01,0.08 0.01,0.12z"/>
  <path class="fil1 str0" d="M0.94 0.4l0.56 -0c0.01,0 0.01,0 0.02,0 0.01,0 0,-0 0.01,0.01l-0.11 1.19c-0.08,0.02 -0.16,0.04 -0.24,0.07 -0.05,0.01 -0.2,0.06 -0.24,0.06 -0,0.01 0.01,0.01 -0.01,0.01l0 0.24c0.02,0 0.6,-0.16 0.62,-0.17 0.03,-0.27 0.05,-0.55 0.07,-0.82 0.01,-0.13 0.02,-0.27 0.04,-0.41 0.01,-0.07 0.04,-0.36 0.03,-0.41 -0.17,0 -0.34,0 -0.51,0 -0.29,0 -0.26,-0.02 -0.26,0.05l0 0.19z"/>
  <path class="fil2" d="M0.94 0.63l0.33 0 -0.03 0.24 -0.31 0 0 0.24 0.29 0 -0.03 0.3 -0.25 0.07c-0.01,0.04 -0,0.08 -0,0.13 0,0.03 -0.01,0.1 0.01,0.12 0.03,0 0.19,-0.05 0.24,-0.06 0.07,-0.02 0.16,-0.05 0.24,-0.07l0.11 -1.19 -0.59 0 0 0.23z"/>
  <path class="fil2" d="M0.94 1.73c0.01,0 0,0 0.01,-0.01 -0.02,-0.02 -0.01,-0.09 -0.01,-0.12 0,-0.04 -0,-0.09 0,-0.13l-0.02 -0.01c-0.02,-0 -0.23,-0.06 -0.25,-0.07l-0.02 -0.19 -0.24 0 0.03 0.38 0.49 0.14z"/>
  <path class="fil2" d="M0.94 0.63l0 -0 0 -0.23 0.59 0c-0.01,-0.01 0,-0 -0.01,-0.01 -0.01,-0 -0.01,-0 -0.02,-0l-0.56 0 -0.58 -0 0.02 0.23 0.57 0z"/>
  <polygon class="fil2" points="0.41,1.1 0.94,1.11 0.94,0.87 0.39,0.87 "/>
  <path class="fil2" d="M1.07 0.19c0,0.01 0.02,0.02 0.04,0.04 0.01,0.01 0.03,0.02 0.04,0.03l-0.08 0 0 0.07 0.19 0c0.02,0 0.01,-0.02 0.01,-0.06 0,-0.01 -0.07,-0.06 -0.08,-0.07 0.1,0 0.08,0.02 0.08,-0.08l-0.2 0 0 0.07z"/>
  <path class="fil2" d="M0.84 0.19c0,0.01 0.04,0.04 0.06,0.05 0.01,0.01 0.02,0.01 0.02,0.02l-0.08 0 0 0.07 0.2 0 0 -0.06c0,-0.01 -0,-0.01 -0.02,-0.02 -0.01,-0.01 -0.06,-0.04 -0.06,-0.05l0.08 0 0 -0.08 -0.2 0 0 0.07z"/>
  <polygon class="fil2" points="0.62,0.33 0.81,0.33 0.81,0.26 0.71,0.26 0.71,0.2 0.81,0.2 0.81,0.12 0.62,0.12 "/>
  <path class="fil1" d="M0.93 1.47l0.02 0.01 0.25 -0.07 0.03 -0.3 -0.29 -0 -0.53 -0c0.02,0.02 0.46,0.01 0.53,0.01l0 0.33c-0,0.04 -0.01,0.03 -0.01,0.03z"/>
  <path class="fil1" d="M0.39 0.87l0.55 -0 0.31 -0 0.03 -0.24 -0.33 -0 -0 0 0 0.24c-0.07,0 -0.52,-0.01 -0.55,0z"/>
 </g>
</svg>
