<?xml version="1.0" encoding="UTF-8"?>
<!DOCTYPE svg PUBLIC "-//W3C//DTD SVG 1.1//EN" "http://www.w3.org/Graphics/SVG/1.1/DTD/svg11.dtd">
<!-- Creator: CorelDRAW 2019 (64-Bit) -->
<svg xmlns="http://www.w3.org/2000/svg" xml:space="preserve" width="73.5984mm" height="24.9941mm" version="1.1" style="shape-rendering:geometricPrecision; text-rendering:geometricPrecision; image-rendering:optimizeQuality; fill-rule:evenodd; clip-rule:evenodd"
viewBox="0 0 117.24 39.82"
 xmlns:xlink="http://www.w3.org/1999/xlink">
 <defs>
  <style type="text/css">
   <![CDATA[
    .str0 {stroke:black;stroke-width:0.32;stroke-miterlimit:22.9256}
    .fil1 {fill:none}
    .fil0 {fill:#1A1A1A}
   ]]>
  </style>
 </defs>
 <g id="Capa_x0020_1">
  <metadata id="CorelCorpID_0Corel-Layer"/>
  <rect class="fil0" y="25.09" width="9.23" height="9.23" rx="0.84" ry="0.84"/>
  <path class="fil1 str0" d="M1.51 36.43c9.58,1.01 19.16,2.02 29.62,1.51 10.46,-0.5 21.81,-2.52 28.49,-6.43 6.68,-3.91 8.7,-9.71 8.95,-15.13 0.25,-5.42 -1.26,-10.46 -5.04,-13.36 -3.78,-2.9 -9.83,-3.66 -14.24,-2.02 -4.41,1.64 -7.19,5.67 -7.82,9.83 -0.63,4.16 0.88,8.45 2.77,11.85 1.89,3.4 4.16,5.92 8.19,8.7 4.03,2.77 9.83,5.8 17.52,7.19 7.69,1.39 17.27,1.13 25.46,0.88 8.19,-0.25 15,-0.5 21.81,-0.76"/>
 </g>
</svg>
