<?xml version="1.0" encoding="UTF-8"?>
<!DOCTYPE svg PUBLIC "-//W3C//DTD SVG 1.1//EN" "http://www.w3.org/Graphics/SVG/1.1/DTD/svg11.dtd">
<!-- Creator: CorelDRAW 2019 (64-Bit) -->
<svg xmlns="http://www.w3.org/2000/svg" xml:space="preserve" width="10.7227mm" height="11.3828mm" version="1.1" style="shape-rendering:geometricPrecision; text-rendering:geometricPrecision; image-rendering:optimizeQuality; fill-rule:evenodd; clip-rule:evenodd"
viewBox="0 0 2.34 2.48"
 xmlns:xlink="http://www.w3.org/1999/xlink">
 <defs>
  <style type="text/css">
   <![CDATA[
    .fil3 {fill:#923B00;fill-rule:nonzero}
    .fil1 {fill:#FF6B00;fill-rule:nonzero}
    .fil2 {fill:#FF9447;fill-rule:nonzero}
    .fil0 {fill:white;fill-rule:nonzero}
   ]]>
  </style>
 </defs>
 <g id="Capa_x0020_1">
  <metadata id="CorelCorpID_0Corel-Layer"/>
  <g id="_1593691544208">
   <path class="fil0" d="M1.01 0.39c0.21,0 0.41,-0 0.62,0 -0,0.06 0,0.12 -0,0.17 -0.12,0 -0.25,0 -0.37,0 0,0.08 -0,0.15 0,0.23 0.11,-0 0.21,-0 0.32,-0l0 0.17c-0.11,0 -0.21,0 -0.32,0l0 0.39c-0.08,0 -0.16,0 -0.24,-0l0 -0.97z"/>
   <path class="fil0" d="M0.83 1.95c0.04,-0.04 0.11,-0.04 0.16,-0.03 0.03,0.01 0.07,0.03 0.07,0.07 0,0.02 0,0.04 -0.01,0.06 -0.01,0.02 -0.04,0.03 -0.06,0.03 0.03,0.01 0.07,0.02 0.08,0.06 0.01,0.03 0,0.07 -0.02,0.1 -0.03,0.03 -0.07,0.04 -0.12,0.05 -0.04,-0 -0.08,-0.01 -0.11,-0.03 -0.02,-0.02 -0.03,-0.05 -0.04,-0.07 0.03,-0 0.06,-0 0.09,-0 0.01,0.04 0.06,0.05 0.09,0.03 0.02,-0.02 0.02,-0.04 0.01,-0.06 -0.02,-0.03 -0.06,-0.03 -0.09,-0.03 -0,-0.02 -0,-0.04 0,-0.06 0.02,-0 0.04,0 0.06,-0.01 0.02,-0.01 0.02,-0.04 0.01,-0.06 -0.02,-0.03 -0.08,-0.02 -0.09,0.03 -0.03,0 -0.06,0 -0.09,-0 0,-0.03 0.01,-0.05 0.03,-0.07z"/>
   <path class="fil0" d="M1.21 2.14c0,0.02 -0,0.05 0.01,0.07 0.02,0.02 0.05,0.02 0.08,0.01 0.02,-0.02 0.02,-0.05 0.02,-0.07 -0,-0.02 -0.03,-0.03 -0.05,-0.03 -0.02,0 -0.04,0.01 -0.05,0.03zm-0.03 -0.2c0.05,-0.02 0.1,-0.02 0.15,-0.01 0.04,0.01 0.06,0.05 0.06,0.09 -0.03,0 -0.05,0 -0.08,-0 -0.01,-0.04 -0.06,-0.05 -0.09,-0.02 -0.02,0.02 -0.01,0.06 -0.01,0.08 0.05,-0.05 0.14,-0.04 0.18,0.02 0.02,0.03 0.02,0.06 0.01,0.09 -0,0.04 -0.03,0.08 -0.07,0.09 -0.05,0.02 -0.1,0.02 -0.14,-0 -0.04,-0.02 -0.06,-0.06 -0.06,-0.1 -0,-0.05 -0,-0.09 -0,-0.14 0,-0.04 0.02,-0.09 0.06,-0.11z"/>
   <path class="fil0" d="M1.57 1.98c-0.02,0.01 -0.03,0.03 -0.03,0.05 -0,0.04 -0,0.08 -0,0.13 -0,0.02 0,0.04 0.02,0.06 0.02,0.01 0.07,0.01 0.08,-0.02 0.01,-0.03 0,-0.07 0.01,-0.1 -0,-0.03 0.01,-0.06 -0.01,-0.09 -0.01,-0.02 -0.04,-0.03 -0.06,-0.02zm-0.02 -0.06c0.04,-0.01 0.09,-0.01 0.13,0.02 0.03,0.02 0.05,0.07 0.05,0.11 -0,0.04 0,0.09 -0,0.13 -0,0.04 -0.03,0.09 -0.07,0.1 -0.05,0.02 -0.11,0.02 -0.16,-0.01 -0.04,-0.02 -0.05,-0.06 -0.05,-0.1 -0,-0.04 0,-0.08 -0,-0.11 -0,-0.03 0.01,-0.06 0.03,-0.09 0.02,-0.02 0.05,-0.04 0.07,-0.04z"/>
   <path class="fil1" d="M1.01 0.39l0 0.97c0.08,0 0.16,0 0.24,0l0 -0.39c0.11,-0 0.21,0 0.32,-0l0 -0.17c-0.11,0 -0.21,-0 -0.32,0 -0,-0.08 -0,-0.15 -0,-0.23 0.12,-0 0.25,0 0.37,-0 0,-0.06 0,-0.12 0,-0.17 -0.21,-0 -0.41,-0 -0.62,-0zm-0.63 -0.39c0.02,0 0.03,0 0.05,0 0.53,0 1.05,0 1.58,0 0.02,0 0.04,-0 0.07,0 0.05,0.01 0.09,0.07 0.09,0.12 0,0.09 0,0.18 0,0.26 -0,0.45 0,0.91 -0,1.36 -0.6,0 -1.19,-0 -1.79,0 -0,-0.44 0,-0.89 -0,-1.33 0.01,-0.1 0,-0.2 0,-0.3 -0,-0.04 0,-0.08 -0,-0.12l-0 -0z"/>
   <path class="fil2" d="M0.32 0.03c0.02,-0.01 0.03,-0.02 0.05,-0.03 0,0.04 0,0.08 0,0.12 -0,0.1 0,0.2 -0,0.3 0,0.44 0,0.89 0,1.33 -0.06,0.03 -0.11,0.07 -0.17,0.1 -0.07,0.04 -0.14,0.08 -0.21,0.12 0,-0.58 0,-1.16 -0,-1.75 0.11,-0.07 0.22,-0.13 0.32,-0.2z"/>
   <path class="fil3" d="M1.55 1.92c-0.03,0.01 -0.06,0.02 -0.07,0.04 -0.02,0.03 -0.03,0.06 -0.03,0.09 0,0.04 -0,0.08 0,0.11 0,0.04 0.02,0.08 0.05,0.1 0.05,0.03 0.11,0.03 0.16,0.01 0.04,-0.02 0.07,-0.06 0.07,-0.1 0,-0.04 0,-0.09 0,-0.13 0,-0.04 -0.01,-0.08 -0.05,-0.11 -0.04,-0.03 -0.09,-0.03 -0.13,-0.02zm-0.37 0.01c-0.04,0.02 -0.06,0.06 -0.06,0.11 -0,0.05 -0,0.09 0,0.14 0,0.04 0.03,0.08 0.06,0.1 0.04,0.02 0.1,0.02 0.14,0 0.04,-0.02 0.07,-0.05 0.07,-0.09 0,-0.03 0,-0.06 -0.01,-0.09 -0.04,-0.06 -0.13,-0.07 -0.18,-0.02 0,-0.03 -0.01,-0.06 0.01,-0.08 0.03,-0.03 0.09,-0.02 0.09,0.02 0.03,0 0.05,0 0.08,0 -0,-0.04 -0.03,-0.08 -0.06,-0.09 -0.05,-0.02 -0.1,-0.02 -0.15,0.01zm-0.35 0.02c-0.02,0.02 -0.03,0.04 -0.03,0.07 0.03,0 0.06,0 0.09,0 0,-0.04 0.06,-0.05 0.09,-0.03 0.01,0.02 0.01,0.05 -0.01,0.06 -0.02,0.01 -0.04,0.01 -0.06,0.01 -0,0.02 -0,0.04 0,0.06 0.03,-0 0.07,-0 0.09,0.03 0.01,0.02 0.01,0.05 -0.01,0.06 -0.03,0.02 -0.09,0.01 -0.09,-0.03 -0.03,0 -0.06,-0 -0.09,0 0.01,0.03 0.02,0.06 0.04,0.07 0.03,0.02 0.07,0.03 0.11,0.03 0.04,-0 0.09,-0.01 0.12,-0.05 0.02,-0.03 0.03,-0.07 0.02,-0.1 -0.01,-0.03 -0.04,-0.05 -0.08,-0.06 0.02,-0.01 0.04,-0.02 0.06,-0.03 0.01,-0.02 0.01,-0.04 0.01,-0.06 -0.01,-0.04 -0.04,-0.06 -0.07,-0.07 -0.05,-0.02 -0.12,-0.01 -0.16,0.03zm1.33 -1.56c0.06,-0 0.11,-0 0.17,0 0,0.7 0,1.4 -0,2.09 -0.67,0 -1.34,0 -2.01,-0 -0.07,0 -0.12,-0.06 -0.12,-0.12 0,-0.17 -0,-0.34 0,-0.51 0.06,-0.03 0.11,-0.07 0.17,-0.1 0.6,-0 1.19,0 1.79,-0 0,-0.45 0,-0.91 0,-1.36z"/>
   <path class="fil3" d="M1.57 1.98c0.02,-0.01 0.05,-0 0.06,0.02 0.01,0.03 0.01,0.06 0.01,0.09 -0,0.03 0,0.07 -0.01,0.1 -0.01,0.03 -0.05,0.04 -0.08,0.02 -0.02,-0.01 -0.02,-0.04 -0.02,-0.06 0,-0.04 -0,-0.08 0,-0.13 0,-0.02 0.01,-0.04 0.03,-0.05z"/>
   <path class="fil3" d="M1.21 2.14c0.01,-0.01 0.03,-0.03 0.05,-0.03 0.02,-0 0.04,0.01 0.05,0.03 0,0.02 0,0.05 -0.02,0.07 -0.02,0.02 -0.06,0.02 -0.08,-0.01 -0.01,-0.02 -0.01,-0.05 -0.01,-0.07z"/>
  </g>
 </g>
</svg>
