<?xml version="1.0" encoding="UTF-8"?>
<!DOCTYPE svg PUBLIC "-//W3C//DTD SVG 1.1//EN" "http://www.w3.org/Graphics/SVG/1.1/DTD/svg11.dtd">
<!-- Creator: CorelDRAW 2019 (64-Bit) -->
<svg xmlns="http://www.w3.org/2000/svg" xml:space="preserve" width="9.8177mm" height="11.1307mm" version="1.1" style="shape-rendering:geometricPrecision; text-rendering:geometricPrecision; image-rendering:optimizeQuality; fill-rule:evenodd; clip-rule:evenodd"
viewBox="0 0 1.87 2.12"
 xmlns:xlink="http://www.w3.org/1999/xlink">
 <defs>
  <style type="text/css">
   <![CDATA[
    .str0 {stroke:#EF6429;stroke-width:0.04;stroke-miterlimit:22.9256}
    .fil2 {fill:#EBECEC}
    .fil4 {fill:#E44D26}
    .fil1 {fill:#EF6429}
    .fil3 {fill:#F16529}
    .fil0 {fill:url(#id0)}
   ]]>
  </style>
  <linearGradient id="id0" gradientUnits="userSpaceOnUse" x1="-0" y1="1.06" x2="1.87" y2="1.06">
   <stop offset="0" style="stop-opacity:1; stop-color:#EB603D"/>
   <stop offset="1" style="stop-opacity:1; stop-color:#CC3812"/>
  </linearGradient>
 </defs>
 <g id="Capa_x0020_1">
  <metadata id="CorelCorpID_0Corel-Layer"/>
  <path class="fil0" d="M0.93 1.71l-0.48 -0.13c-0.01,-0.03 -0.03,-0.32 -0.03,-0.37l0.24 0c-0,0.04 0.01,0.16 0.02,0.19 0.04,0.01 0.22,0.06 0.25,0.06 0.02,-0.01 0.01,-0.06 0.01,-0.08l0 -0.27c-0.07,-0.01 -0.42,0.01 -0.5,-0l-0.03 -0.01 -0.06 -0.71c0.03,-0.02 0.49,0 0.59,-0.01 0,-0.05 -0.01,-0.19 0,-0.22l0.76 0c0.01,0.04 -0.03,0.34 -0.03,0.41 -0.03,0.4 -0.08,0.82 -0.11,1.22l-0.62 0.17 -0 -0.24zm-0.76 0.19l0.76 0.21 0.74 -0.2c0.04,-0.01 0.03,-0.02 0.03,-0.07 0,-0.03 0.01,-0.07 0.01,-0.09 0,-0.09 0.04,-0.41 0.05,-0.53 0,-0.05 0.01,-0.12 0.02,-0.18 0,-0.05 0.01,-0.12 0.02,-0.17 0.01,-0.06 0.01,-0.12 0.01,-0.18l0.03 -0.35c0.01,-0.12 0.03,-0.24 0.03,-0.36l-1.87 0 0.09 0.95c0,0.07 0.02,0.16 0.02,0.23l0.06 0.72z"/>
  <path class="fil1 str0" d="M0.35 0.39l0.58 0 0.59 0 -0.02 0.23 -0.57 -0 -0 0.24 0.54 0 -0.07 0.72c-0.08,0.02 -0.16,0.04 -0.24,0.07 -0.04,0.01 -0.2,0.06 -0.23,0.06l-0.01 0.01 0 0.24 0.62 -0.17c0.03,-0.4 0.07,-0.82 0.11,-1.22 0.01,-0.07 0.04,-0.36 0.03,-0.41l-0.76 0c-0.01,0.03 -0,0.18 -0,0.22 -0.09,0.01 -0.55,-0.01 -0.59,0.01z"/>
  <polygon class="fil2" points="0.41,1.1 0.93,1.1 0.93,0.86 0.63,0.86 0.61,0.62 0.93,0.62 0.93,0.39 0.35,0.39 "/>
  <path class="fil2" d="M0.93 1.1l0.29 -0c0,0.04 -0.02,0.28 -0.03,0.3 -0.02,0.02 -0.22,0.06 -0.26,0.07 0,0.04 0,0.08 0,0.12 0,0.02 0,0.04 -0,0.06 -0,0.02 -0.01,0.04 0.01,0.05 0.03,0 0.19,-0.05 0.23,-0.06 0.08,-0.02 0.16,-0.05 0.24,-0.07l0.07 -0.72 -0.54 -0 -0 0.23z"/>
  <path class="fil2" d="M0.93 1.71l0.01 -0.01c-0.01,-0.01 -0.01,-0.03 -0.01,-0.05 0,-0.02 0,-0.04 0,-0.06 0,-0.04 0,-0.08 0,-0.12l-0.01 -0.01c-0.03,0 -0.21,-0.05 -0.25,-0.06 -0.01,-0.03 -0.02,-0.15 -0.02,-0.19l-0.24 0c0,0.05 0.02,0.34 0.03,0.37l0.48 0.13z"/>
  <polygon class="fil2" points="0.93,0.62 0.93,0.62 1.5,0.62 1.52,0.39 0.93,0.39 "/>
  <path class="fil2" d="M0.95 0.33l0.07 0 0 -0.1c0.02,0.02 0.04,0.06 0.05,0.07 0.01,-0.01 0.03,-0.04 0.03,-0.05l0.01 -0.02 0 0.1 0.07 0 0 -0.21c-0.07,0 -0.07,-0.01 -0.08,0.01 -0.01,0.01 -0.03,0.04 -0.03,0.06 -0.01,-0.01 -0.02,-0.02 -0.02,-0.03 -0.01,-0.01 -0.02,-0.02 -0.02,-0.04l-0.08 0 0 0.21z"/>
  <path class="fil2" d="M0.49 0.33c0.09,0 0.07,0.02 0.07,-0.07l0.06 0 0 0.07c0.04,0 0.07,0.01 0.07,-0.01l0 -0.2 -0.07 0 0 0.07 -0.06 0 0 -0.07 -0.07 0 0 0.21z"/>
  <path class="fil3" d="M0.93 1.46l0.01 0.01c0.04,-0.01 0.24,-0.06 0.26,-0.07 0.01,-0.02 0.03,-0.26 0.03,-0.3l-0.29 0 -0.52 -0 0.03 0.01c0.08,0.01 0.42,-0.01 0.5,0l0 0.27c0,0.02 0.01,0.07 -0.01,0.08z"/>
  <polygon class="fil4" points="0.93,0.86 0.93,0.62 0.93,0.62 0.61,0.62 0.63,0.86 "/>
  <polygon class="fil2" points="0.73,0.19 0.79,0.19 0.79,0.33 0.86,0.33 0.86,0.19 0.92,0.19 0.92,0.12 0.73,0.12 "/>
  <path class="fil2" d="M1.21 0.32c0,0.01 0,0.01 0.01,0.01l0.15 0c0.02,0 0.01,-0.03 0.01,-0.07l-0.1 0 0 -0.14 -0.07 0 0 0.2z"/>
 </g>
</svg>
