<?xml version="1.0" encoding="UTF-8"?>
<!DOCTYPE svg PUBLIC "-//W3C//DTD SVG 1.1//EN" "http://www.w3.org/Graphics/SVG/1.1/DTD/svg11.dtd">
<!-- Creator: CorelDRAW 2019 (64-Bit) -->
<svg xmlns="http://www.w3.org/2000/svg" xml:space="preserve" width="10.0176mm" height="11.3289mm" version="1.1" style="shape-rendering:geometricPrecision; text-rendering:geometricPrecision; image-rendering:optimizeQuality; fill-rule:evenodd; clip-rule:evenodd"
viewBox="0 0 1.97 2.23"
 xmlns:xlink="http://www.w3.org/1999/xlink">
 <defs>
  <style type="text/css">
   <![CDATA[
    .str0 {stroke:#88EC16;stroke-width:0.04;stroke-miterlimit:22.9256}
    .fil1 {fill:#EBECEC}
    .fil4 {fill:#FEFEFC}
    .fil2 {fill:#8ACF17}
    .fil3 {fill:#EAEAEA}
    .fil0 {fill:url(#id0)}
   ]]>
  </style>
  <linearGradient id="id0" gradientUnits="userSpaceOnUse" x1="0.02" y1="1.12" x2="1.95" y2="1.12">
   <stop offset="0" style="stop-opacity:1; stop-color:#63A814"/>
   <stop offset="1" style="stop-opacity:1; stop-color:#8AF016"/>
  </linearGradient>
 </defs>
 <g id="Capa_x0020_1">
  <metadata id="CorelCorpID_0Corel-Layer"/>
  <path class="fil0 str0" d="M0.99 1.79l-0.5 -0.14 -0.03 -0.38 0.19 -0c0.01,-0 0.02,-0 0.03,-0 0.03,0 0.01,-0 0.02,0.01 0.02,0.02 0.02,0.15 0.02,0.19l0.27 0.07c0,-0.11 -0.01,-0.83 0,-0.88l0.26 -0c0.08,-0 0.08,-0.01 0.07,0.02 -0,-0.03 0,-0.01 -0.01,-0.02l-0.34 -0 -0.59 -0 -0.02 -0.24 0.61 -0 0 -0.24c0.04,-0.01 0.69,-0 0.79,-0l-0.15 1.69c-0.02,0.01 -0.62,0.18 -0.64,0.18l0 -0.25zm-0.79 0.2c0.12,0.03 0.27,0.08 0.39,0.11 0.07,0.02 0.13,0.03 0.2,0.05 0.03,0.01 0.06,0.02 0.1,0.03 0.13,0.03 0.07,0.04 0.2,0 0.04,-0.01 0.07,-0.02 0.1,-0.03l0.4 -0.11c0.04,-0.01 0.18,-0.05 0.2,-0.06l0.16 -1.84c0.01,-0.04 0.01,-0.08 0.01,-0.13l-1.94 0c0,0.04 0.01,0.08 0.01,0.12l0.05 0.62c0.01,0.08 0.02,0.17 0.02,0.25l0.04 0.49c0.01,0.07 0.02,0.17 0.02,0.25 0,0.04 0.01,0.08 0.01,0.12 0,0.04 0.01,0.09 0.01,0.12z"/>
  <path class="fil1" d="M0.98 0.66l0.34 0c0.01,0 0.01,-0.01 0.01,0.02l-0.08 0.79 -0.26 0.07 -0.01 0.01c-0,0 -0,0.01 -0.01,0.01 0,0.05 -0.01,0.2 0.01,0.24l0.49 -0.14c0.01,-0.09 0.05,-0.49 0.06,-0.6 0.01,-0.09 0.06,-0.57 0.05,-0.61l-0 -0.01 -0.6 0 0 0.23z"/>
  <path class="fil2" d="M0.99 1.54l0.01 -0 0.26 -0.07 0.08 -0.79c0,-0.03 0,-0.02 -0.07,-0.02l-0.26 0c-0.01,0.05 -0,0.76 -0,0.88z"/>
  <path class="fil3" d="M0.99 1.79c-0.01,-0.04 -0.01,-0.19 -0.01,-0.24 0,-0 0,-0.01 0.01,-0.01l0.01 -0.01 -0.01 0 -0.27 -0.07c-0.01,-0.04 -0.01,-0.16 -0.02,-0.19 -0.01,-0.01 0.01,-0 -0.02,-0.01 -0.01,-0 -0.02,0 -0.03,0l-0.19 0 0.03 0.38 0.5 0.14z"/>
  <path class="fil3" d="M0.98 0.66l0 -0.23 0.6 -0 0 0.01c0.01,-0.01 0,0 0.01,-0.02l-0.61 -0 -0.61 0 0.02 0.24 0.59 0z"/>
  <path class="fil4" d="M1 0.18c0,0.01 0.01,0.02 0.02,0.02l0.07 0.05 -0.08 0 0 0.07 0.2 0c0,-0.09 0.01,-0.06 -0.04,-0.1 -0.01,-0.01 -0.04,-0.03 -0.04,-0.04l0.08 0 0 -0.08 -0.2 0 0 0.07z"/>
  <path class="fil4" d="M0.88 0.24l-0.1 0c-0.02,0 -0.01,0.03 -0.01,0.07 0,0.01 0,0.01 0.01,0.01l0.19 0 0 -0.22 -0.09 0 0 0.14z"/>
  <path class="fil2" d="M1.63 1.86l0.15 -1.69c-0.06,-0 -0.37,-0 -0.58,-0l0 0.01 -0.08 0c0.01,0.01 0.03,0.03 0.04,0.04 0.05,0.04 0.04,0.01 0.04,0.1l-0.2 0 0 -0.07 0.08 0 -0.07 -0.05c-0.01,-0 -0.01,-0.01 -0.02,-0.02 -0,0 -0.01,0 -0.01,0l0 0.24 0.61 0c-0,0.02 0,0.01 -0.01,0.02 0.01,0.04 -0.04,0.53 -0.05,0.61 -0.01,0.12 -0.04,0.52 -0.06,0.6l-0.49 0.14 -0 0.25c0.02,0 0.62,-0.16 0.64,-0.18z"/>
 </g>
</svg>
