<?xml version="1.0" encoding="UTF-8"?>
<!DOCTYPE svg PUBLIC "-//W3C//DTD SVG 1.1//EN" "http://www.w3.org/Graphics/SVG/1.1/DTD/svg11.dtd">
<!-- Creator: CorelDRAW 2019 (64-Bit) -->
<svg xmlns="http://www.w3.org/2000/svg" xml:space="preserve" width="73.2492mm" height="15.1931mm" version="1.1" style="shape-rendering:geometricPrecision; text-rendering:geometricPrecision; image-rendering:optimizeQuality; fill-rule:evenodd; clip-rule:evenodd"
viewBox="0 0 108.58 22.52"
 xmlns:xlink="http://www.w3.org/1999/xlink">
 <defs>
  <style type="text/css">
   <![CDATA[
    .fil0 {fill:#CCCCCC;fill-rule:nonzero}
   ]]>
  </style>
 </defs>
 <g id="Capa_x0020_1">
  <metadata id="CorelCorpID_0Corel-Layer"/>
  <path class="fil0" d="M108.42 13.92c0.24,-2.37 0.46,-5.65 -1.27,-7.71 -2.2,-2.52 -5.8,-2.74 -8.95,-2.74 -5.7,0 -8.73,3.47 -8.73,9.2 0,5.97 2.47,9.32 8.71,9.35 6.87,0.02 9.32,-2.42 10.25,-8.1zm-10.52 -4.75c3.4,0.22 4.72,-0.34 4.72,3.01 0,1.98 -1.15,4.06 -3.2,4.06 -2.72,0 -3.99,-0.56 -3.99,-3.6 0,-1.96 0.27,-3.47 2.47,-3.47z"/>
  <path class="fil0" d="M46.21 13.92c0.24,-2.37 0.46,-5.65 -1.27,-7.71 -2.2,-2.52 -5.8,-2.74 -8.95,-2.74 -5.7,0 -8.73,3.47 -8.73,9.2 0,5.97 2.47,9.32 8.71,9.35 6.87,0.02 9.32,-2.42 10.25,-8.1zm-10.52 -4.75c3.4,0.22 4.72,-0.34 4.72,3.01 0,1.98 -1.15,4.06 -3.2,4.06 -2.72,0 -3.99,-0.56 -3.99,-3.6 0,-1.96 0.27,-3.47 2.47,-3.47z"/>
  <path class="fil0" d="M79.31 14.39l-1.64 -4.99c-0.54,-1.69 -0.86,-3.47 -1.64,-5.06 -0.32,-0.64 -0.71,-0.88 -1.42,-0.88 -1.15,0 -4.48,0.59 -4.48,2.06 0,0.81 4.35,13.55 5.04,15.34 0.54,1.35 2.45,1.25 4.11,1.25 1.42,0 3.77,0.32 4.43,-1.27 1,-2.4 4.5,-13.94 4.5,-15.83 0,-1.57 -2.54,-1.79 -3.69,-1.79 -1.15,0 -1.74,0.17 -2.1,1.32 -1.03,3.25 -1.91,6.58 -2.89,9.86l-0.22 0z"/>
  <path class="fil0" d="M64.3 0c-1.47,0 -2.64,1.27 -2.64,2.72 0,1.64 1.49,2.89 3.08,2.89 1.49,0 2.86,-1.27 2.86,-2.81 0,-1.86 -1.64,-2.79 -3.3,-2.79z"/>
  <path class="fil0" d="M68.76 19.01c0,-2.84 0.1,-6.14 0.1,-8.83 0,-2.32 -0.34,-2.52 -2.67,-2.52 -2.94,0 -3.33,0.39 -3.33,3.38 0,3.01 -0.12,6.41 0,9.47 0.05,1.05 0.46,1.57 1.57,1.57 3.01,0 4.33,0.39 4.33,-3.06z"/>
  <path class="fil0" d="M53.42 16.57c-0.29,-3.35 0.17,-8.32 -0.1,-11.67 -0.1,-1.3 -0.98,-1.25 -2.06,-1.25 -1.61,0 -3.79,-0.39 -3.79,1.81 0,4.11 -0.07,10.91 0.2,15.46 0.05,0.78 0.39,0.93 1.15,1.05 1.79,0.29 3.74,0.15 5.55,0.15 1.96,0 3.87,0 5.8,-0.17 0.54,-0.05 0.93,-0.24 1.08,-0.81 0.15,-0.59 0.22,-1.17 0.22,-1.79 0,-1 -0.15,-2.86 -1.49,-2.86 -2.18,0 -4.38,-0.02 -6.56,0.07z"/>
  <path class="fil0" d="M22.87 22.02c1.52,0 2.86,-1.2 2.86,-2.76 0,-1.61 -1.57,-2.76 -3.08,-2.76 -1.54,0 -2.91,1.13 -2.91,2.74 0,1.71 1.52,2.79 3.13,2.79z"/>
  <path class="fil0" d="M9.73 10.17c-2.7,-1 -1.36,-1.69 0.51,-1.21 2.01,0.52 3.56,2.15 5.01,2.53 1.42,0.37 2.91,-1.9 3.21,-3.06 0.54,-2.08 -5.26,-4.28 -6.87,-4.7 -3.79,-0.98 -8.37,-0.16 -9.47,4.11 -1.16,4.53 3.5,6.63 7.01,7.82 1.97,0.68 2.39,1.6 -0.31,0.91 -2.27,-0.59 -4.3,-1.74 -6.55,-2.32 -1.16,-0.3 -1.54,0.49 -1.78,1.44 -0.19,0.73 -0.37,1.55 -0.47,2.33 -0.08,0.59 0.19,1.03 0.73,1.3 2.15,1.06 4.42,1.97 6.76,2.57 4,1.03 8.2,1.4 9.45,-3.45 1.5,-5.83 -4.16,-7.18 -7.22,-8.25z"/>
 </g>
</svg>
