<?xml version="1.0" encoding="UTF-8"?>
<!DOCTYPE svg PUBLIC "-//W3C//DTD SVG 1.1//EN" "http://www.w3.org/Graphics/SVG/1.1/DTD/svg11.dtd">
<!-- Creator: CorelDRAW 2019 (64-Bit) -->
<svg xmlns="http://www.w3.org/2000/svg" xml:space="preserve" width="109.988mm" height="144.738mm" version="1.1" style="shape-rendering:geometricPrecision; text-rendering:geometricPrecision; image-rendering:optimizeQuality; fill-rule:evenodd; clip-rule:evenodd"
viewBox="0 0 1914.91 2519.91"
 xmlns:xlink="http://www.w3.org/1999/xlink">
 <defs>
  <style type="text/css">
   <![CDATA[
    .fil2 {fill:#FEFEFE}
    .fil0 {fill:#E6E6E6}
    .fil1 {fill:url(#id0)}
   ]]>
  </style>
  <linearGradient id="id0" gradientUnits="userSpaceOnUse" x1="957.43" y1="140.5" x2="957.43" y2="2459.16">
   <stop offset="0" style="stop-opacity:1; stop-color:#00A148"/>
   <stop offset="1" style="stop-opacity:1; stop-color:#008444"/>
  </linearGradient>
 </defs>
 <g id="Capa_x0020_1">
  <metadata id="CorelCorpID_0Corel-Layer"/>
  <path class="fil0" d="M1270.49 606.88c2.04,-1.93 4.07,-3.86 6.08,-5.74 25.6,-23.96 51.09,-48.04 76.58,-72.11 152.61,-144.05 304.96,-288.38 457.36,-432.65l101.81 -96.38 0.71 140.2c1.08,215.46 2.32,431.03 1.73,646.5 -0.14,50.88 -0.65,101.57 -1.52,152.42 -0.14,8.17 -0.2,16.33 -0.2,24.49l0 1199.58c0,196.31 -160.42,356.73 -356.73,356.73l-1199.57 0c-196.32,0 -356.73,-160.41 -356.73,-356.73l0 -1199.58c0,-196.32 160.41,-356.73 356.73,-356.73l913.76 0z"/>
  <path class="fil1" d="M1556.3 2459.16l-1199.57 0c-162.79,0 -295.98,-133.19 -295.98,-295.98l0 -1199.58c0,-162.79 133.19,-295.98 295.98,-295.98l937.01 0c0,0 4.11,-2.28 558.53,-527.13 4.12,820.83 0.01,748.9 0.01,823.11l0 1199.58c0,162.78 -133.19,295.98 -295.98,295.98z"/>
  <path class="fil2" d="M1270.45 1684.74c-3.71,-6.09 -13.52,-9.74 -28.16,-17.04 -14.71,-7.28 -87.02,-42.6 -100.47,-47.43 -13.46,-4.85 -23.33,-7.3 -33.08,7.27 -9.8,14.59 -37.98,47.46 -46.59,57.2 -8.55,9.75 -17.1,10.94 -31.82,3.65 -14.72,-7.28 -62.11,-22.74 -118.23,-72.36 -43.67,-38.72 -73.17,-86.42 -81.79,-101.01 -8.54,-14.58 -0.85,-22.47 6.42,-29.75 6.64,-6.57 14.73,-17.03 22.07,-25.51 7.36,-8.56 9.81,-14.66 14.71,-24.4 4.91,-9.74 2.46,-18.22 -1.25,-25.52 -3.65,-7.28 -33.07,-79.06 -45.33,-108.29 -12.19,-29.15 -24.45,-28.06 -33.07,-28.06 -8.55,0 -24.42,2.54 -24.42,2.54 0,0 -29.46,3.65 -42.92,18.24 -13.45,14.57 -51.42,49.9 -51.42,121.61 0,71.77 52.62,141.16 59.98,150.83 7.36,9.75 101.65,161.84 251.11,220.23 149.46,58.38 149.46,38.9 176.42,36.44 26.9,-2.38 86.94,-35.25 99.21,-69.32 12.27,-34.07 12.27,-63.28 8.62,-69.32l0 0zm-302.81 -637.35c-278.07,0 -504.2,224.39 -504.2,500.29 0,109.42 35.65,210.82 96.03,293.32l-62.96 185.76 193.72 -61.55c79.59,52.22 174.95,82.71 277.41,82.71 277.95,0 504.15,-224.41 504.15,-500.25 0,-275.9 -226.2,-500.29 -504.15,-500.29l0 0zm599.65 500.29c0,328.58 -268.47,595.02 -599.65,595.02 -105.17,0 -203.98,-26.85 -289.88,-74.03l-332.03 105.51 108.23 -319.23c-54.61,-89.69 -86.02,-194.86 -86.02,-307.26 0,-328.65 268.47,-595.07 599.7,-595.07 331.18,0 599.65,266.42 599.65,595.07l0 0z"/>
 </g>
</svg>
