<?xml version="1.0" encoding="UTF-8"?>
<!DOCTYPE svg PUBLIC "-//W3C//DTD SVG 1.1//EN" "http://www.w3.org/Graphics/SVG/1.1/DTD/svg11.dtd">
<!-- Creator: CorelDRAW 2019 (64-Bit) -->
<svg xmlns="http://www.w3.org/2000/svg" xml:space="preserve" width="10.6336mm" height="11.718mm" version="1.1" style="shape-rendering:geometricPrecision; text-rendering:geometricPrecision; image-rendering:optimizeQuality; fill-rule:evenodd; clip-rule:evenodd"
viewBox="0 0 2.26 2.49"
 xmlns:xlink="http://www.w3.org/1999/xlink">
 <defs>
  <style type="text/css">
   <![CDATA[
    .fil0 {fill:#8CC84B}
   ]]>
  </style>
 </defs>
 <g id="Capa_x0020_1">
  <metadata id="CorelCorpID_0Corel-Layer"/>
  <g id="_1594023639456">
   <g>
    <path class="fil0" d="M1.03 0.03c0.06,-0.04 0.14,-0.04 0.2,0 0.31,0.18 0.62,0.35 0.93,0.53 0.06,0.03 0.1,0.1 0.1,0.17l0 1.06c0,0.07 -0.04,0.14 -0.1,0.17 -0.31,0.17 -0.62,0.35 -0.93,0.52 -0.06,0.04 -0.15,0.03 -0.21,-0.01 -0.09,-0.05 -0.19,-0.11 -0.28,-0.16 -0.02,-0.01 -0.04,-0.02 -0.05,-0.04 0.01,-0.02 0.03,-0.02 0.05,-0.02 0.04,-0.01 0.07,-0.03 0.11,-0.05 0.01,-0.01 0.02,-0 0.03,0 0.08,0.05 0.16,0.09 0.24,0.14 0.02,0.01 0.03,-0 0.05,-0.01 0.3,-0.17 0.61,-0.34 0.91,-0.51 0.01,-0.01 0.02,-0.02 0.02,-0.03 0,-0.35 0,-0.7 0,-1.04 0,-0.01 -0.01,-0.03 -0.02,-0.03 -0.31,-0.17 -0.62,-0.35 -0.92,-0.52 -0.01,-0 -0.01,-0.01 -0.02,-0.01 -0.01,0 -0.01,0 -0.02,0.01 -0.31,0.17 -0.62,0.35 -0.92,0.52 -0.01,0.01 -0.02,0.02 -0.02,0.03 0,0.35 0,0.7 0,1.04 -0,0 -0,0 -0,0 0,0.01 0.01,0.02 0.02,0.03 0.08,0.05 0.16,0.09 0.25,0.14 0.05,0.02 0.1,0.04 0.15,0.02 0.05,-0.02 0.08,-0.06 0.08,-0.11 0,-0.35 -0,-0.69 0,-1.04 -0,-0.02 0.01,-0.03 0.03,-0.03 0.04,-0 0.08,-0 0.12,0 0.02,-0 0.03,0.02 0.03,0.03 -0,0.35 0,0.7 -0,1.04 0,0.09 -0.04,0.19 -0.12,0.24 -0.11,0.05 -0.24,0.04 -0.34,-0.01 -0.09,-0.05 -0.18,-0.1 -0.27,-0.15 -0.06,-0.03 -0.1,-0.1 -0.1,-0.17l0 -1.06c-0,-0.07 0.04,-0.13 0.1,-0.17 0.31,-0.17 0.62,-0.35 0.93,-0.52z"/>
    <path class="fil0" d="M1.3 0.76c0.13,-0.01 0.28,-0.01 0.4,0.06 0.09,0.05 0.15,0.16 0.15,0.26 -0,0.01 -0.02,0.02 -0.03,0.02 -0.04,-0 -0.08,0 -0.12,-0 -0.02,0 -0.03,-0.01 -0.03,-0.03 -0.01,-0.05 -0.04,-0.1 -0.09,-0.12 -0.07,-0.04 -0.16,-0.03 -0.23,-0.03 -0.06,0 -0.12,0.01 -0.17,0.04 -0.04,0.03 -0.05,0.08 -0.04,0.12 0.01,0.03 0.05,0.04 0.08,0.05 0.16,0.04 0.33,0.04 0.49,0.09 0.07,0.02 0.13,0.07 0.15,0.14 0.03,0.09 0.02,0.2 -0.05,0.28 -0.05,0.06 -0.13,0.09 -0.21,0.11 -0.1,0.02 -0.21,0.02 -0.32,0.01 -0.1,-0.01 -0.2,-0.04 -0.28,-0.1 -0.07,-0.06 -0.1,-0.14 -0.09,-0.23 0,-0.01 0.02,-0.02 0.03,-0.02 0.04,-0 0.08,-0 0.12,0 0.02,-0 0.03,0.01 0.03,0.03 0.01,0.05 0.03,0.1 0.07,0.13 0.08,0.05 0.18,0.05 0.27,0.05 0.08,-0 0.16,-0 0.22,-0.05 0.03,-0.03 0.04,-0.08 0.03,-0.12 -0.01,-0.03 -0.05,-0.05 -0.08,-0.06 -0.16,-0.05 -0.33,-0.03 -0.49,-0.09 -0.06,-0.02 -0.13,-0.07 -0.15,-0.13 -0.03,-0.09 -0.02,-0.21 0.05,-0.28 0.07,-0.07 0.17,-0.1 0.27,-0.11l0 0z"/>
   </g>
  </g>
 </g>
</svg>
