<?xml version="1.0" encoding="UTF-8"?>
<!DOCTYPE svg PUBLIC "-//W3C//DTD SVG 1.1//EN" "http://www.w3.org/Graphics/SVG/1.1/DTD/svg11.dtd">
<!-- Creator: CorelDRAW 2019 (64-Bit) -->
<svg xmlns="http://www.w3.org/2000/svg" xml:space="preserve" width="12.8575mm" height="11.4354mm" version="1.1" style="shape-rendering:geometricPrecision; text-rendering:geometricPrecision; image-rendering:optimizeQuality; fill-rule:evenodd; clip-rule:evenodd"
viewBox="0 0 3.33 2.96"
 xmlns:xlink="http://www.w3.org/1999/xlink">
 <defs>
  <style type="text/css">
   <![CDATA[
    .fil0 {fill:#00D8FF}
    .fil1 {fill:#00D8FF;fill-rule:nonzero}
   ]]>
  </style>
 </defs>
 <g id="Capa_x0020_1">
  <metadata id="CorelCorpID_0Corel-Layer"/>
  <g id="_1594026503472">
   <path class="fil0" d="M1.96 1.48c0,-0.16 -0.13,-0.3 -0.3,-0.3 -0.16,0 -0.3,0.13 -0.3,0.3 0,0.16 0.13,0.3 0.3,0.3 0.16,0 0.3,-0.13 0.3,-0.3z"/>
   <path class="fil1" d="M1.67 0.8c0.2,0 0.39,0.01 0.57,0.04 0.18,0.03 0.35,0.07 0.5,0.12 0.18,0.06 0.32,0.14 0.42,0.22 0.11,0.09 0.17,0.2 0.17,0.3 0,0.11 -0.07,0.21 -0.19,0.31 -0.11,0.09 -0.26,0.17 -0.45,0.23 -0.14,0.05 -0.3,0.08 -0.48,0.11 -0.18,0.02 -0.37,0.04 -0.56,0.04 -0.2,0 -0.4,-0.01 -0.58,-0.04 -0.18,-0.02 -0.34,-0.06 -0.48,-0.11 -0.18,-0.06 -0.33,-0.14 -0.43,-0.23 -0.12,-0.1 -0.18,-0.21 -0.18,-0.31 0,-0.1 0.06,-0.2 0.17,-0.3 0.1,-0.08 0.24,-0.16 0.41,-0.22 0.15,-0.05 0.32,-0.09 0.51,-0.12 0.18,-0.03 0.38,-0.04 0.58,-0.04zm0.55 0.18c-0.17,-0.03 -0.36,-0.04 -0.55,-0.04 -0.2,0 -0.39,0.01 -0.56,0.04 -0.18,0.03 -0.34,0.06 -0.48,0.11 -0.16,0.05 -0.28,0.12 -0.36,0.19 -0.08,0.06 -0.12,0.13 -0.12,0.19 0,0.06 0.05,0.13 0.13,0.2 0.09,0.08 0.22,0.15 0.38,0.2 0.13,0.04 0.28,0.08 0.45,0.1 0.17,0.02 0.36,0.03 0.56,0.03 0.19,0 0.37,-0.01 0.54,-0.03 0.17,-0.02 0.32,-0.06 0.45,-0.1 0.17,-0.06 0.31,-0.13 0.4,-0.2 0.09,-0.07 0.13,-0.14 0.13,-0.2 0,-0.06 -0.04,-0.12 -0.12,-0.19 -0.09,-0.07 -0.22,-0.14 -0.37,-0.2 -0.14,-0.05 -0.3,-0.09 -0.47,-0.11z"/>
   <path class="fil1" d="M1.08 1.14c0.1,-0.17 0.21,-0.33 0.32,-0.48 0.12,-0.15 0.24,-0.27 0.35,-0.37l-0 -0c0.14,-0.12 0.28,-0.21 0.4,-0.25 0.14,-0.05 0.26,-0.05 0.34,-0 0.09,0.05 0.15,0.16 0.18,0.32 0.02,0.14 0.02,0.31 -0.02,0.5 -0.03,0.14 -0.08,0.3 -0.15,0.46 -0.07,0.16 -0.15,0.33 -0.25,0.5 -0.1,0.18 -0.21,0.34 -0.32,0.48 -0.11,0.14 -0.22,0.26 -0.33,0.36 -0.14,0.13 -0.29,0.21 -0.41,0.26 -0.14,0.05 -0.27,0.05 -0.36,0 -0.09,-0.05 -0.15,-0.15 -0.17,-0.29 -0.02,-0.13 -0.02,-0.28 0.01,-0.46 0.03,-0.15 0.08,-0.32 0.15,-0.5 0.07,-0.17 0.15,-0.35 0.26,-0.52zm0.43 -0.39c-0.11,0.14 -0.21,0.29 -0.31,0.46 -0.1,0.17 -0.18,0.34 -0.25,0.51 -0.07,0.17 -0.11,0.33 -0.14,0.47 -0.03,0.16 -0.03,0.3 -0.01,0.41 0.02,0.1 0.05,0.17 0.1,0.2 0.05,0.03 0.14,0.03 0.24,-0.01 0.11,-0.04 0.24,-0.12 0.37,-0.23 0.1,-0.09 0.21,-0.21 0.31,-0.34 0.11,-0.14 0.21,-0.3 0.31,-0.47 0.09,-0.16 0.18,-0.33 0.24,-0.49 0.06,-0.15 0.11,-0.3 0.14,-0.44 0.04,-0.18 0.04,-0.33 0.02,-0.45 -0.02,-0.11 -0.05,-0.18 -0.11,-0.22 -0.05,-0.03 -0.13,-0.02 -0.22,0.01 -0.11,0.04 -0.23,0.12 -0.36,0.23l-0 0c-0.11,0.1 -0.22,0.22 -0.33,0.36z"/>
   <path class="fil1" d="M1.08 1.82c-0.1,-0.17 -0.18,-0.35 -0.25,-0.52 -0.07,-0.17 -0.12,-0.34 -0.15,-0.49 -0.04,-0.18 -0.04,-0.34 -0.02,-0.47 0.02,-0.14 0.08,-0.25 0.17,-0.3 0.09,-0.05 0.22,-0.05 0.36,0 0.13,0.05 0.27,0.14 0.42,0.27 0.11,0.1 0.22,0.22 0.33,0.36 0.11,0.14 0.21,0.3 0.31,0.47 0.1,0.17 0.19,0.35 0.26,0.52 0.07,0.16 0.12,0.32 0.15,0.47 0.04,0.19 0.04,0.35 0.02,0.49 -0.03,0.15 -0.09,0.26 -0.18,0.31 -0.09,0.05 -0.21,0.05 -0.34,0 -0.12,-0.04 -0.26,-0.13 -0.39,-0.24 -0.12,-0.1 -0.24,-0.23 -0.36,-0.38 -0.11,-0.14 -0.23,-0.31 -0.33,-0.48zm-0.12 -0.57c0.06,0.16 0.15,0.33 0.24,0.5 0.1,0.17 0.21,0.33 0.32,0.47 0.11,0.14 0.23,0.26 0.34,0.36 0.13,0.11 0.25,0.18 0.35,0.22 0.09,0.03 0.17,0.04 0.22,0.01 0.05,-0.03 0.09,-0.11 0.11,-0.21 0.02,-0.12 0.02,-0.26 -0.02,-0.43 -0.03,-0.14 -0.07,-0.28 -0.14,-0.44 -0.07,-0.16 -0.15,-0.33 -0.25,-0.5 -0.09,-0.16 -0.2,-0.32 -0.3,-0.45 -0.1,-0.13 -0.21,-0.25 -0.31,-0.34 -0.13,-0.12 -0.26,-0.2 -0.38,-0.24 -0.1,-0.04 -0.19,-0.04 -0.24,-0.01 -0.05,0.03 -0.09,0.1 -0.1,0.2 -0.02,0.11 -0.01,0.26 0.02,0.42 0.03,0.14 0.08,0.3 0.14,0.47z"/>
  </g>
 </g>
</svg>
