<?xml version="1.0" encoding="UTF-8"?>
<!DOCTYPE svg PUBLIC "-//W3C//DTD SVG 1.1//EN" "http://www.w3.org/Graphics/SVG/1.1/DTD/svg11.dtd">
<!-- Creator: CorelDRAW 2019 (64-Bit) -->
<svg xmlns="http://www.w3.org/2000/svg" xml:space="preserve" width="800.751mm" height="760mm" version="1.1" style="shape-rendering:geometricPrecision; text-rendering:geometricPrecision; image-rendering:optimizeQuality; fill-rule:evenodd; clip-rule:evenodd"
viewBox="0 0 12798.08 12146.77"
 xmlns:xlink="http://www.w3.org/1999/xlink">
 <defs>
  <style type="text/css">
   <![CDATA[
    .fil0 {fill:fuchsia;fill-opacity:0.058824}
   ]]>
  </style>
 </defs>
 <g id="Capa_x0020_1">
  <metadata id="CorelCorpID_0Corel-Layer"/>
  <path class="fil0" d="M719.22 0l3036.69 0c395.57,0 719.22,323.65 719.22,719.22l0 3036.69c0,395.57 -323.65,719.22 -719.22,719.22l-3036.69 0c-395.57,0 -719.22,-323.65 -719.22,-719.22l0 -3036.69c0,-395.57 323.65,-719.22 719.22,-719.22z"/>
  <path class="fil0" d="M5946.88 3983.65l5539.26 0c721.56,0 1311.93,590.37 1311.93,1311.93l0 5539.26c0,721.56 -590.37,1311.93 -1311.93,1311.93l-5539.26 0c-721.56,0 -1311.93,-590.37 -1311.93,-1311.93l0 -5539.26c0,-721.56 590.37,-1311.93 1311.93,-1311.93z"/>
  <path class="fil0" d="M5623.88 1518.35l1138.76 0c148.34,0 269.71,121.37 269.71,269.71l0 1138.76c0,148.34 -121.37,269.71 -269.71,269.71l-1138.76 0c-148.34,0 -269.71,-121.37 -269.71,-269.71l0 -1138.76c0,-148.34 121.37,-269.71 269.71,-269.71z"/>
 </g>
</svg>
