<?xml version="1.0" encoding="UTF-8"?>
<!DOCTYPE svg PUBLIC "-//W3C//DTD SVG 1.1//EN" "http://www.w3.org/Graphics/SVG/1.1/DTD/svg11.dtd">
<!-- Creator: CorelDRAW -->
<svg xmlns="http://www.w3.org/2000/svg" xml:space="preserve" width="27.0326mm" height="28.3125mm" version="1.1" style="shape-rendering:geometricPrecision; text-rendering:geometricPrecision; image-rendering:optimizeQuality; fill-rule:evenodd; clip-rule:evenodd"
viewBox="0 0 10.12 10.59"
 xmlns:xlink="http://www.w3.org/1999/xlink"
 xmlns:xodm="http://www.corel.com/coreldraw/odm/2003">
 <defs>
  <style type="text/css">
   <![CDATA[
    .fil6 {fill:#0093BD;fill-rule:nonzero}
    .fil2 {fill:#3C3C3C;fill-rule:nonzero}
    .fil4 {fill:#808484;fill-rule:nonzero}
    .fil7 {fill:#9BA4AB;fill-rule:nonzero}
    .fil10 {fill:#B3B5B5;fill-rule:nonzero}
    .fil8 {fill:#C9C9C2;fill-rule:nonzero}
    .fil0 {fill:#EAF2F2;fill-rule:nonzero}
    .fil5 {fill:#EFD4BD;fill-rule:nonzero}
    .fil3 {fill:#F5C29C;fill-rule:nonzero}
    .fil9 {fill:#F9DAC4;fill-rule:nonzero}
    .fil12 {fill:#FF6801;fill-rule:nonzero}
    .fil1 {fill:#FFA465;fill-rule:nonzero}
    .fil11 {fill:#FFBD8F;fill-rule:nonzero}
   ]]>
  </style>
 </defs>
 <g id="Capa_x0020_1">
  <metadata id="CorelCorpID_0Corel-Layer"/>
  <g id="_2558021379056">
   <path class="fil0" d="M5.06 0.37c-2.79,0 -5.06,2.26 -5.06,5.06 0,2.79 2.26,5.06 5.06,5.06 2.79,0 5.06,-2.26 5.06,-5.06 0,-2.79 -2.26,-5.06 -5.06,-5.06z"/>
   <path class="fil1" d="M7.76 4.56c0,-1.49 -1.19,-2.7 -2.67,-2.7 -1.47,0 -2.67,1.21 -2.67,2.7 0,0.75 0.31,1.43 0.8,1.92 0.21,0.21 0.37,0.33 0.53,0.58 0.1,0.17 0.2,0.53 0.2,0.73 0,0.25 0,0.98 0,0.98l2.29 0 0 -0.97c0,0 0.06,-0.55 0.16,-0.73 0.13,-0.21 0.27,-0.33 0.45,-0.49 0.55,-0.49 0.91,-1.22 0.91,-2.03z"/>
   <path class="fil2" d="M4.62 6.62c-0.02,0 -0.04,-0.02 -0.05,-0.04 -0,-0.01 -0.04,-0.21 -0.57,-1.93 -0.06,-0.19 -0.05,-0.31 0.01,-0.37 0.08,-0.09 0.22,-0.05 0.33,-0.02 0.03,0.01 0.08,0.02 0.09,0.02 0.02,-0 0.06,-0.05 0.09,-0.08 0.06,-0.07 0.13,-0.16 0.24,-0.16l0 0c0.11,0 0.17,0.09 0.22,0.16 0.03,0.04 0.06,0.09 0.09,0.09l0 0c0.03,0 0.05,0.02 0.05,0.05 0,0.03 -0.02,0.05 -0.05,0.05 -0.08,-0 -0.13,-0.06 -0.17,-0.12 -0.04,-0.06 -0.09,-0.12 -0.15,-0.12l-0 0c-0.07,0 -0.12,0.06 -0.17,0.13 -0.04,0.06 -0.09,0.11 -0.15,0.12 -0.03,0 -0.07,-0.01 -0.13,-0.02 -0.08,-0.02 -0.2,-0.05 -0.24,-0 -0.02,0.02 -0.05,0.09 0.01,0.28 0.53,1.74 0.57,1.94 0.57,1.94 0.01,0.03 -0.01,0.05 -0.04,0.05l-0.01 0z"/>
   <path class="fil2" d="M5.55 6.62l-0.01 -0c-0.03,-0.01 -0.04,-0.03 -0.04,-0.06 0,-0.01 0.05,-0.2 0.58,-1.94 0.06,-0.19 0.03,-0.26 0.01,-0.28 -0.04,-0.05 -0.16,-0.02 -0.24,0 -0.05,0.01 -0.09,0.02 -0.13,0.02 -0.06,-0.01 -0.1,-0.06 -0.15,-0.12 -0.05,-0.06 -0.1,-0.13 -0.17,-0.13l-0 0c-0.06,0 -0.11,0.06 -0.15,0.12 -0.05,0.06 -0.09,0.13 -0.17,0.13 -0.03,-0 -0.05,-0.02 -0.05,-0.05 0,-0.03 0.02,-0.05 0.05,-0.05l0 0c0.03,0 0.06,-0.04 0.09,-0.09 0.05,-0.07 0.11,-0.15 0.22,-0.16l0.01 0c0.11,0 0.18,0.09 0.24,0.16 0.03,0.04 0.06,0.08 0.09,0.08 0.01,0 0.06,-0.01 0.09,-0.02 0.11,-0.03 0.25,-0.06 0.33,0.02 0.06,0.07 0.07,0.19 0.01,0.37 -0.53,1.73 -0.58,1.93 -0.58,1.94 -0.01,0.02 -0.02,0.04 -0.05,0.04z"/>
   <path class="fil3" d="M5.65 8.4l-1.12 0c-0.01,-0.02 -0.01,-0.04 -0.01,-0.07l0 -1.53c0,-0.11 0.02,-0.18 0.06,-0.24 0,0.02 0.01,0.02 0.01,0.02 0,0.02 0.02,0.04 0.05,0.04l0.01 -0c0.03,-0 0.04,-0.03 0.04,-0.05 -0,-0 -0,-0.02 -0.02,-0.08 0.11,-0.07 0.26,-0.07 0.44,-0.07l0 0c0.17,0 0.33,0 0.44,0.07 -0.02,0.07 -0.02,0.08 -0.02,0.09 -0,0.01 -0,0.02 0,0.03 -0.03,-0.04 -0.07,-0.06 -0.12,-0.06 -0.08,0 -0.15,0.07 -0.15,0.15l0 1.52c0,0.08 0.07,0.15 0.15,0.15 0.08,0 0.15,-0.07 0.15,-0.15l0 -1.52c0,-0.03 -0.01,-0.05 -0.02,-0.07 0.01,0.01 0.01,0.01 0.02,0.01l0.01 0c0.02,0 0.04,-0.01 0.05,-0.04 0,-0 0,-0.01 0.01,-0.03 0.04,0.06 0.06,0.14 0.06,0.25l0 1.53c0,0.02 -0,0.05 -0.01,0.07z"/>
   <path class="fil4" d="M4.62 6.62c-0.02,0 -0.04,-0.02 -0.05,-0.04 -0,-0 -0,-0.01 -0.01,-0.02 0.02,-0.03 0.05,-0.06 0.08,-0.08 0.02,0.06 0.02,0.08 0.02,0.08 0.01,0.03 -0.01,0.05 -0.04,0.05l-0.01 0z"/>
   <path class="fil4" d="M5.55 6.62l-0.01 -0c-0.01,-0 -0.02,-0.01 -0.02,-0.01 -0,-0.01 -0.01,-0.01 -0.01,-0.01 -0,-0.01 -0,-0.02 -0,-0.03 0,-0 0.01,-0.02 0.02,-0.09 0.03,0.02 0.06,0.04 0.08,0.07 -0.01,0.02 -0.01,0.03 -0.01,0.03 -0.01,0.02 -0.02,0.04 -0.05,0.04z"/>
   <path class="fil3" d="M5.24 6.41l-0.15 0 -0.18 0 0 -1.19 0.33 0 0 1.19zm-0.11 -1.09c-0.03,0 -0.05,0.02 -0.05,0.05l0 0.92c0,0.03 0.02,0.05 0.05,0.05 0.03,0 0.05,-0.02 0.05,-0.05l0 -0.92c0,-0.03 -0.02,-0.05 -0.05,-0.05z"/>
   <path class="fil3" d="M5.25 5.21l-0.01 0 0 -0.05 -0.33 0 0 0.05 -0.02 0c-0.03,0 -0.05,-0.02 -0.05,-0.05 0,-0.03 0.02,-0.05 0.05,-0.05l0.37 0c0.03,0 0.05,0.02 0.05,0.05 0,0.03 -0.02,0.05 -0.05,0.05z"/>
   <polygon class="fil5" points="4.91,5.21 5.24,5.21 5.24,5.16 4.91,5.16 "/>
   <path class="fil6" d="M6.24 9.38c0,0.63 -0.83,1.15 -1.15,1.15 -0.32,0 -1.15,-0.51 -1.15,-1.15l0 -0.98 2.29 0 0 0.98z"/>
   <path class="fil7" d="M5.37 10.44c0,0.09 -0.03,0.16 -0.08,0.16l-0.4 0c-0.04,0 -0.08,-0.07 -0.08,-0.16 0,-0.09 0.03,-0.16 0.08,-0.16l0.4 0c0.04,0 0.08,0.07 0.08,0.16z"/>
   <path class="fil8" d="M6.23 8.66c0,0.05 -0.04,0.1 -0.09,0.1l-2.1 0.1c-0.05,0 -0.1,-0.04 -0.1,-0.09 -0,-0.05 0.04,-0.1 0.09,-0.1l2.1 -0.1c0.05,-0 0.1,0.04 0.1,0.09z"/>
   <path class="fil8" d="M6.23 9c0,0.05 -0.04,0.1 -0.09,0.1l-2.1 0.1c-0.05,0 -0.1,-0.04 -0.1,-0.09 -0,-0.05 0.04,-0.1 0.09,-0.1l2.1 -0.1c0.05,-0 0.1,0.04 0.1,0.09z"/>
   <path class="fil8" d="M6.23 9.34c0,0.05 -0.04,0.1 -0.09,0.1l-2.1 0.1c-0.05,0 -0.1,-0.04 -0.1,-0.09 -0,-0.05 0.04,-0.1 0.09,-0.1l2.1 -0.1c0.05,-0 0.1,0.04 0.1,0.09z"/>
   <path class="fil9" d="M5.39 8.34c-0.08,0 -0.15,-0.07 -0.15,-0.15l0 -1.52c0,-0.08 0.07,-0.15 0.15,-0.15 0.05,0 0.09,0.02 0.12,0.06 0,0.01 0.01,0.01 0.01,0.01 0.01,0.02 0.02,0.04 0.02,0.07l0 1.52c0,0.08 -0.07,0.15 -0.15,0.15z"/>
   <path class="fil10" d="M5.51 6.6c-0,-0 -0.01,-0.01 -0.01,-0.01 0,0 0.01,0.01 0.01,0.01z"/>
   <path class="fil9" d="M5.13 6.35c-0.03,0 -0.05,-0.02 -0.05,-0.05l0 -0.92c0,-0.03 0.02,-0.05 0.05,-0.05 0.03,0 0.05,0.02 0.05,0.05l0 0.92c0,0.03 -0.02,0.05 -0.05,0.05z"/>
   <path class="fil2" d="M4.14 9.92c0.18,0.24 0.45,0.44 0.67,0.54 0,0.08 0.04,0.14 0.08,0.14l0.4 0c0.04,0 0.07,-0.06 0.08,-0.14 0.22,-0.1 0.49,-0.29 0.67,-0.53l-1.9 0z"/>
   <path class="fil11" d="M7.35 3.45c0.24,0.54 0.19,1.08 -0.11,1.21 -0.3,0.13 -0.73,-0.2 -0.97,-0.73 -0.24,-0.54 -0.19,-1.08 0.11,-1.21 0.3,-0.13 0.73,0.2 0.97,0.73z"/>
   <path class="fil12" d="M2.13 3.77l-1.18 0c-0.02,0 -0.04,-0.02 -0.04,-0.04 0,-0.02 0.02,-0.04 0.04,-0.04l1.18 0c0.02,0 0.04,0.02 0.04,0.04 0,0.02 -0.02,0.04 -0.04,0.04z"/>
   <path class="fil12" d="M9.23 3.77l-1.18 0c-0.02,0 -0.04,-0.02 -0.04,-0.04 0,-0.02 0.02,-0.04 0.04,-0.04l1.18 0c0.02,0 0.04,0.02 0.04,0.04 0,0.02 -0.02,0.04 -0.04,0.04z"/>
   <path class="fil12" d="M7.63 2.83l-0.03 -0.01c-0.01,-0.02 -0.01,-0.04 0,-0.06l0.94 -0.87c0.02,-0.01 0.04,-0.01 0.06,0 0.01,0.02 0.01,0.04 -0,0.06l-0.94 0.87 -0.03 0.01z"/>
   <path class="fil12" d="M6.93 2.11l-0.02 -0c-0.02,-0.01 -0.03,-0.03 -0.02,-0.05l0.62 -1.21c0.01,-0.02 0.03,-0.03 0.05,-0.02 0.02,0.01 0.03,0.03 0.02,0.05l-0.62 1.21c-0.01,0.01 -0.02,0.02 -0.04,0.02z"/>
   <path class="fil12" d="M6.08 1.65l-0.01 -0c-0.02,-0.01 -0.03,-0.03 -0.03,-0.05l0.32 -1.37c0.01,-0.02 0.03,-0.03 0.05,-0.03 0.02,0 0.03,0.03 0.03,0.05l-0.32 1.37c-0,0.02 -0.02,0.03 -0.04,0.03z"/>
   <path class="fil12" d="M5.05 1.51l0 0c-0.02,-0 -0.04,-0.02 -0.04,-0.04l0 -1.43c0,-0.02 0.02,-0.04 0.04,-0.04 0.02,0 0.04,0.02 0.04,0.04l-0 1.43c0,0.02 -0.02,0.04 -0.04,0.04z"/>
   <path class="fil12" d="M7.87 3.27c-0.01,0 -0.03,-0.01 -0.03,-0.02 -0.01,-0.02 -0,-0.04 0.02,-0.05l0.63 -0.34c0.02,-0.01 0.04,-0 0.05,0.02 0.01,0.02 0,0.04 -0.02,0.05l-0.63 0.34 -0.02 0z"/>
   <path class="fil12" d="M7.3 2.45l-0.02 -0.01c-0.02,-0.01 -0.02,-0.04 -0.01,-0.06l0.47 -0.61c0.01,-0.02 0.04,-0.02 0.06,-0.01 0.02,0.01 0.02,0.04 0.01,0.06l-0.47 0.61 -0.03 0.02z"/>
   <path class="fil12" d="M6.52 1.87l-0.01 -0c-0.02,-0.01 -0.03,-0.03 -0.02,-0.05l0.29 -0.76c0.01,-0.02 0.03,-0.03 0.05,-0.02 0.02,0.01 0.03,0.03 0.02,0.05l-0.29 0.76c-0.01,0.02 -0.02,0.03 -0.04,0.03z"/>
   <path class="fil12" d="M5.57 1.55l-0 -0c-0.02,-0 -0.04,-0.02 -0.04,-0.04l0.08 -0.83c0,-0.02 0.02,-0.04 0.04,-0.04 0.02,0 0.04,0.02 0.04,0.04l-0.08 0.83c-0,0.02 -0.02,0.04 -0.04,0.04z"/>
   <path class="fil12" d="M2.55 2.83l-0.03 -0.01 -0.94 -0.87c-0.02,-0.01 -0.02,-0.04 -0,-0.06 0.01,-0.02 0.04,-0.02 0.06,-0l0.94 0.87c0.02,0.01 0.02,0.04 0,0.06l-0.03 0.01z"/>
   <path class="fil12" d="M3.24 2.11c-0.01,0 -0.03,-0.01 -0.04,-0.02l-0.62 -1.21c-0.01,-0.02 -0,-0.04 0.02,-0.05 0.02,-0.01 0.04,-0 0.05,0.02l0.62 1.21c0.01,0.02 0,0.04 -0.02,0.05l-0.02 0z"/>
   <path class="fil12" d="M4.1 1.65c-0.02,0 -0.03,-0.01 -0.04,-0.03l-0.32 -1.37c-0.01,-0.02 0.01,-0.04 0.03,-0.05 0.02,-0 0.04,0.01 0.05,0.03l0.32 1.37c0.01,0.02 -0.01,0.04 -0.03,0.05l-0.01 0z"/>
   <path class="fil12" d="M2.3 3.27l-0.02 -0 -0.63 -0.34c-0.02,-0.01 -0.03,-0.03 -0.02,-0.05 0.01,-0.02 0.03,-0.03 0.05,-0.02l0.63 0.34c0.02,0.01 0.03,0.03 0.02,0.05 -0.01,0.01 -0.02,0.02 -0.03,0.02z"/>
   <path class="fil12" d="M2.88 2.45l-0.03 -0.02 -0.47 -0.61c-0.01,-0.02 -0.01,-0.04 0.01,-0.06 0.02,-0.01 0.04,-0.01 0.06,0.01l0.47 0.61c0.01,0.02 0.01,0.04 -0.01,0.06l-0.02 0.01z"/>
   <path class="fil12" d="M3.66 1.87c-0.02,0 -0.03,-0.01 -0.04,-0.03l-0.29 -0.76c-0.01,-0.02 0,-0.04 0.02,-0.05 0.02,-0.01 0.04,0 0.05,0.02l0.29 0.76c0.01,0.02 -0,0.04 -0.02,0.05l-0.01 0z"/>
   <path class="fil12" d="M4.61 1.55c-0.02,0 -0.04,-0.02 -0.04,-0.04l-0.08 -0.83c-0,-0.02 0.01,-0.04 0.04,-0.04 0.02,-0 0.04,0.01 0.04,0.04l0.08 0.83c0,0.02 -0.01,0.04 -0.04,0.04l-0 0z"/>
  </g>
 </g>
</svg>
