<?xml version="1.0" encoding="UTF-8"?>
<!DOCTYPE svg PUBLIC "-//W3C//DTD SVG 1.1//EN" "http://www.w3.org/Graphics/SVG/1.1/DTD/svg11.dtd">
<!-- Creator: CorelDRAW 2019 (64-Bit) -->
<svg xmlns="http://www.w3.org/2000/svg" xml:space="preserve" width="12.3075mm" height="12.3231mm" version="1.1" style="shape-rendering:geometricPrecision; text-rendering:geometricPrecision; image-rendering:optimizeQuality; fill-rule:evenodd; clip-rule:evenodd"
viewBox="0 0 3 3.01"
 xmlns:xlink="http://www.w3.org/1999/xlink">
 <defs>
  <style type="text/css">
   <![CDATA[
    .fil0 {fill:url(#id0)}
    .fil1 {fill:url(#id1)}
   ]]>
  </style>
  <linearGradient id="id0" gradientUnits="userSpaceOnUse" x1="0.09" y1="0.82" x2="1.61" y2="2.89">
   <stop offset="0" style="stop-opacity:1; stop-color:#41D1FF"/>
   <stop offset="1" style="stop-opacity:1; stop-color:#BD34FE"/>
  </linearGradient>
  <linearGradient id="id1" gradientUnits="userSpaceOnUse" x1="1.52" y1="0.29" x2="1.84" y2="2.44">
   <stop offset="0" style="stop-opacity:1; stop-color:#FFEA83"/>
   <stop offset="0.0784314" style="stop-opacity:1; stop-color:#FFDD35"/>
   <stop offset="1" style="stop-opacity:1; stop-color:#FFA800"/>
  </linearGradient>
 </defs>
 <g id="Capa_x0020_1">
  <metadata id="CorelCorpID_0Corel-Layer"/>
  <g id="_1593691591088">
   <path class="fil0" d="M2.99 0.45l-1.41 2.52c-0.03,0.05 -0.1,0.05 -0.13,0l-1.44 -2.52c-0.03,-0.06 0.02,-0.12 0.08,-0.11l1.41 0.25c0,0 0.01,0 0.01,0 0,0 0.01,-0 0.01,-0l1.38 -0.25c0.06,-0.01 0.11,0.06 0.08,0.11l0 0z"/>
   <path class="fil1" d="M2.18 0l-1.04 0.2c-0.02,0 -0.03,0.02 -0.03,0.04l-0.06 1.08c-0,0 -0,0 -0,0 0,0.02 0.02,0.04 0.04,0.04 0,0 0.01,-0 0.01,-0l0.29 -0.07c0.03,-0.01 0.05,0.02 0.05,0.05l-0.09 0.42c-0.01,0.03 0.02,0.05 0.05,0.04l0.18 -0.05c0.03,-0.01 0.05,0.02 0.05,0.04l-0.14 0.66c-0.01,0.04 0.05,0.06 0.07,0.03l0.02 -0.02 0.85 -1.7c0.01,-0.03 -0.01,-0.06 -0.04,-0.05l-0.3 0.06c-0.03,0.01 -0.05,-0.02 -0.04,-0.05l0.2 -0.68c0.01,-0.03 -0.02,-0.05 -0.04,-0.05l-0 0z"/>
  </g>
 </g>
</svg>
